<svg xmlns="http://www.w3.org/2000/svg" id="svg5" width="16" height="16" version="1.1" viewBox="0 0 16 16" xml:space="preserve"><metadata id="metadata3005"/><path style="color:#232629;fill:#d2d2d2;fill-opacity:.5;stroke:none;stroke-width:.264583" id="path7010" d="M9 3v9h1v-.771a3 3 0 0 0 2.004.771 3 3 0 0 0 0-6A3 3 0 0 0 10 6.773V3zm3.004 4a2 2 0 1 1 0 4 2 2 0 0 1 0-4z" class="ColorScheme-Text"/><path id="path3115-7" d="M0 2.002v.996h16v-.996z" style="color:#000;fill:#d2d2d2;fill-opacity:1;stroke-width:.999999;stroke-linecap:square;stroke-linejoin:round;-inkscape-stroke:none;paint-order:stroke markers fill"/><path id="path30460" d="m4 3.998-3 8h1l1.072-3h2.856l1.072 3h1l-3-8zm.5 1 1.072 3H3.428z" style="fill:#d2d2d2;fill-opacity:.501961;stroke:none;stroke-width:2.11667;stroke-linejoin:round"/></svg>