<svg xmlns="http://www.w3.org/2000/svg" id="svg5" width="16" height="16" version="1.1" viewBox="0 0 16 16" xml:space="preserve"><metadata id="metadata3005"/><path id="path7010" d="M11.996 5.998a3 3 0 0 0 0 6A3 3 0 0 0 14 11.225V12c0 .639-.205 1.123-.541 1.459-.336.336-.82.541-1.459.541-1.278 0-2-.833-2-1.5H9c0 1.333 1.278 2.5 3 2.5.861 0 1.628-.295 2.166-.834.539-.538.834-1.305.834-2.166V6h-1v.77a3 3 0 0 0-2.004-.772zm-.013 1.014a1.983 1.983 0 0 1 2.013 1.986 2 2 0 0 1-4 0c0-1.087.869-1.973 1.987-1.986z" style="color:#232629;fill:#d2d2d2;fill-opacity:.5;stroke:none;stroke-width:.264583"/><path id="path3115-7" d="M0 15.002v.996h16v-.996z" style="color:#000;fill:#d2d2d2;fill-opacity:1;stroke-width:.999999;stroke-linecap:square;stroke-linejoin:round;-inkscape-stroke:none;paint-order:stroke markers fill"/><path id="path30460" d="m4 3.998-3 8h1l1.072-3h2.856l1.072 3h1l-3-8zm.5 1 1.072 3H3.428z" style="fill:#d2d2d2;fill-opacity:.501961;stroke:none;stroke-width:2.11667;stroke-linejoin:round"/></svg>