<svg xmlns="http://www.w3.org/2000/svg" id="svg5" width="16" height="16" version="1.1" viewBox="0 0 16 16" xml:space="preserve"><metadata id="metadata3005"/><path id="path8827" d="m21.225.794-1.142 3.555H21.1l.776-2.453.7 2.455h.997L22.528.794zm-1.996 6.22-.57 1.776h1.037l.563-1.777zm4.106.001.507 1.775h1.036l-.522-1.775z" style="color:#232629;fill:#d2d2d2;fill-opacity:.5;stroke:none;stroke-width:.264583"/><path id="path3115-7" d="M7.5 8.996v.998H10v-.998zM0 9v.996h1.5V9zm13 0v.996h3V9z" style="color:#000;fill:#d2d2d2;fill-opacity:1;stroke-width:1;stroke-linecap:square;stroke-linejoin:round;-inkscape-stroke:none;paint-order:stroke markers fill"/><path id="path30460" d="m4 4-3 8h1l1.072-3h2.856L7 12h1L5 4zm.5 1 1.072 3H3.428z" style="fill:#d2d2d2;fill-opacity:.501961;stroke:none;stroke-width:8;stroke-linejoin:round"/><path id="path48682" d="m9 7 2 2.5L9 12h1l1.5-1.875L13 12h1l-2-2.5L14 7h-1l-1.5 1.875L10 7H9z" style="fill:#d2d2d2;fill-opacity:.50196081;stroke-width:8;stroke-linejoin:round"/></svg>