<svg xmlns="http://www.w3.org/2000/svg" width="16" height="16" version="1.1" viewBox="0 0 16 16" xml:space="preserve"><metadata/><g fill="#d2d2d2" stroke-linecap="square" stroke-linejoin="round"><path fill-opacity=".25" d="m0 14v1h15v-1z" color="#000" style="-inkscape-stroke:none;paint-order:stroke markers fill"/><path fill-opacity=".25" d="m0 1v1h15v-1z" color="#000" style="-inkscape-stroke:none;paint-order:stroke markers fill"/><path d="m3 9v-0.994l-3-1e-3v0.996zm12 1e-3v-0.996h-3v0.995z" color="#000" style="-inkscape-stroke:none;paint-order:stroke markers fill"/></g><g opacity=".5"><path fill="#d2d2d2" stroke-linejoin="round" d="m8 3h-1v2h-4v1h1.668c0.53964 1.2402 1.2427 2.4143 2.1582 3.4883-0.94725 0.96099-2.1115 1.8226-3.5547 2.5664l0.45703 0.89062c1.5133-0.77997 2.7542-1.7 3.7715-2.7266 1.0173 1.0266 2.2582 1.9466 3.7715 2.7266l0.45703-0.89062c-1.4432-0.74385-2.6074-1.6054-3.5547-2.5664 0.91554-1.074 1.6186-2.2481 2.1582-3.4883h1.668v-1h-4zm-2.2344 3h3.4688c-0.4582 0.97501-1.025 1.893-1.7344 2.7441-0.70935-0.85115-1.2762-1.7691-1.7344-2.7441z" color="#000" style="-inkscape-stroke:none;paint-order:markers fill stroke"/></g></svg>