<svg xmlns="http://www.w3.org/2000/svg" xmlns:svg="http://www.w3.org/2000/svg" id="svg5" width="12" height="12" version="1.1" viewBox="0 0 3.175 3.175" xml:space="preserve"><path id="rect2437" d="M 0.26458333 0.79375 L 0.26458333 2.38125 L 0.52916667 2.38125 L 1.0583333 2.38125 L 1.0583333 2.1166667 L 0.52916667 2.1166667 L 0.52916667 1.5875 L 1.0583333 1.5875 L 1.0583333 1.3229167 L 0.52916667 1.3229167 L 0.52916667 1.0583333 L 1.0583333 1.0583333 L 1.0583333 0.79375 L 0.52916667 0.79375 L 0.26458333 0.79375 z M 1.0583333 1.0583333 L 1.0583333 1.3229167 L 1.3229167 1.3229167 L 1.3229167 1.0583333 L 1.0583333 1.0583333 z M 1.0583333 1.5875 L 1.0583333 2.1166667 L 1.3229167 2.1166667 L 1.3229167 1.5875 L 1.0583333 1.5875 z" style="display:inline;font-variation-settings:'opsz' 10;opacity:1;fill:#4d4d4d;stroke-width:1.207"/><path id="rect2501" d="M 1.5875 0.79375 L 1.5875 2.38125 L 1.8520833 2.38125 L 1.8520833 1.3229167 L 2.1166667 1.3229167 L 2.1166667 1.0583333 L 1.8520833 1.0583333 L 1.8520833 0.79375 L 1.5875 0.79375 z M 2.1166667 1.3229167 L 2.1166667 1.5875 L 2.38125 1.5875 L 2.38125 1.3229167 L 2.1166667 1.3229167 z M 2.38125 1.3229167 L 2.6458333 1.3229167 L 2.6458333 2.38125 L 2.9104167 2.38125 L 2.9104167 0.79375 L 2.6458333 0.79375 L 2.6458333 1.0583333 L 2.38125 1.0583333 L 2.38125 1.3229167 z" style="display:inline;font-variation-settings:'opsz' 10;opacity:1;fill:#4d4d4d;stroke-width:1.207"/><metadata id="metadata3005"/></svg>