<svg xmlns="http://www.w3.org/2000/svg" xmlns:svg="http://www.w3.org/2000/svg" id="svg2" width="22" height="22" version="1.1" viewBox="0 0 22 22"><metadata id="metadata7"/><path id="path824" d="M 10.5,5 V 7 H 11 c 2.761426,0 4.999998,2.2385763 4.999998,5 0,2.761424 -2.238572,5 -4.999998,5 H 9 v 2 h 2 c 3.865996,0 6.999997,-3.134007 6.999997,-7 0,-3.8659932 -3.134001,-7 -6.999997,-7 z" style="vector-effect:none;fill:#d2d2d2;fill-opacity:1;stroke:none;stroke-width:4;stroke-linecap:square;stroke-linejoin:round;stroke-miterlimit:4;stroke-dasharray:none;stroke-dashoffset:3.2;stroke-opacity:.550633"/><path id="path842" d="M 9,2 5,6 9,10 V 8.4140625 L 6.5859375,6 9,3.5859375 Z" style="fill:#d2d2d2;fill-opacity:.66000003;stroke:none;stroke-width:1px;stroke-linecap:butt;stroke-linejoin:miter;stroke-opacity:1"/><path id="path842-9" d="M 5,2 1,6 5,10 V 8.4140625 L 2.5859375,6 5,3.5859375 Z" style="fill:#d2d2d2;fill-opacity:.33000001;stroke:none;stroke-width:1px;stroke-linecap:butt;stroke-linejoin:miter;stroke-opacity:1"/><path id="path842-1" d="m 9,6 4,4 V 2 Z" style="fill:#d2d2d2;fill-opacity:1;stroke:none;stroke-width:1px;stroke-linecap:butt;stroke-linejoin:miter;stroke-opacity:1"/></svg>