<svg xmlns="http://www.w3.org/2000/svg" id="svg2" width="22" height="22" version="1.1" viewBox="0 0 22 22"><metadata id="metadata7"/><g id="layer1" transform="translate(0 -1030.362)"><path style="fill:#373737;fill-opacity:1;stroke:none" id="rect4139" d="M4 3v16h8v-1H5V4h12v9h1V3H4zm9 8c-1.662 0-3 1.338-3 3s1.338 3 3 3c.65 0 1.246-.209 1.736-.557L17.293 19l.707-.707-2.557-2.557A2.993 2.993 0 0 0 13 11zm0 1c1.108 0 2 .892 2 2s-.892 2-2 2-2-.892-2-2 .892-2 2-2z" transform="translate(0 1030.362)"/></g></svg>