<svg xmlns="http://www.w3.org/2000/svg" id="svg3613" width="22" height="22" version="1.1"><metadata id="metadata3618"/><g id="layer1" transform="translate(0 -1030.362)"><rect style="fill:#373737;fill-opacity:1;stroke:none" id="rect4139" width="5" height="5" x="9" y="1033.362" ry="2.5"/><path style="fill:#373737;fill-opacity:1;stroke:none" id="rect4141" d="M5.5 14A2.495 2.495 0 0 0 3 16.5C3 17.885 4.115 19 5.5 19S8 17.885 8 16.5 6.885 14 5.5 14zm0 1c.831 0 1.5.669 1.5 1.5S6.331 18 5.5 18 4 17.331 4 16.5 4.669 15 5.5 15z" transform="translate(0 1030.362)"/><rect style="fill:#373737;fill-opacity:1;stroke:none" id="rect4200" width="16" height="1" x="3" y="1035.362" ry="0"/><rect style="fill:#373737;fill-opacity:1;stroke:none" id="rect4206" width="12" height="1" x="7" y="1046.362"/></g></svg>