<svg xmlns="http://www.w3.org/2000/svg" id="svg3760" width="24" height="24" version="1.1"><metadata id="metadata3765"/><g id="layer1" transform="translate(-550.286 -606.648)"><path style="fill:#373737;fill-opacity:1;stroke:none" id="rect4203" d="M12 4a7.952 7.952 0 0 0-5.281 2c-.126.111-.256.225-.375.344L6 6.719A7.952 7.952 0 0 0 4 12a8 8 0 0 0 8 8 7.952 7.952 0 0 0 5.281-2l.375-.344c.12-.119.233-.249.344-.375A7.952 7.952 0 0 0 20 12a8 8 0 0 0-8-8zm0 1a7 7 0 0 1 7 7 6.921 6.921 0 0 1-1.719 4.563L7.438 6.719A6.921 6.921 0 0 1 12 5zM6.719 7.438l9.843 9.843A6.921 6.921 0 0 1 12 19a7 7 0 0 1-7-7c0-1.754.653-3.334 1.719-4.563z" transform="translate(550.286 606.648)"/></g></svg>