<svg xmlns="http://www.w3.org/2000/svg" id="svg4355" width="22" height="22" version="1.1"><metadata id="metadata4360"/><g id="layer1" transform="translate(-544.571 -742.934)"><g id="layer1-5" transform="translate(544.571 -287.429)"><path id="rect3081" d="M4 4v1h1V4H4zm5 0v1h1V4H9zm5 0v1h1V4h-1zm5 0v1h1V4h-1zM4 7v1h1V7H4zm5 0v1h1V7H9zm5 0v1h1V7h-1zm5 0v1h1V7h-1zM4 10v1h1v-1H4zm5 0v1h1v-1H9zm5 0v1h1v-1h-1zm5 0v1h1v-1h-1zM4 13v1h1v-1H4zm5 0v1h1v-1H9zm5 0v1h1v-1h-1zm5 0v1h1v-1h-1zM4 16v1h1v-1H4zm5 0v1h1v-1H9zm5 0v1h1v-1h-1zm5 0v1h1v-1h-1zM4 19v1h1v-1H4zm5 0v1h1v-1H9zm5 0v1h1v-1h-1zm5 0v1h1v-1h-1z" transform="translate(-1 1029.362)" style="color:#000;display:inline;overflow:visible;visibility:visible;fill:#373737;fill-opacity:1;fill-rule:evenodd;stroke:none;stroke-width:1;marker:none;enable-background:accumulate"/></g></g></svg>