<svg xmlns="http://www.w3.org/2000/svg" id="svg18109" width="22" height="22" version="1.1"><metadata id="metadata18114"/><g id="layer1" transform="translate(0 -1030.362)"><path style="color:#000;text-decoration:none;text-decoration-line:none;text-decoration-style:solid;text-decoration-color:#000;clip-rule:nonzero;display:inline;overflow:visible;visibility:visible;opacity:1;isolation:auto;mix-blend-mode:normal;color-interpolation:sRGB;color-interpolation-filters:linearRGB;solid-color:#000;solid-opacity:1;fill:#373737;fill-opacity:1;fill-rule:nonzero;stroke:none;stroke-width:1;stroke-linecap:butt;stroke-linejoin:miter;stroke-miterlimit:4;stroke-dasharray:none;stroke-dashoffset:0;stroke-opacity:1;color-rendering:auto;image-rendering:auto;shape-rendering:auto;text-rendering:auto;enable-background:accumulate" id="rect4144" d="m9.6 1033.362 3.293 3.293.207.207-.207.207-3.293 3.293-.707-.707 2.293-2.293H8v-1h3.186l-2.293-2.293.707-.707zm-3.1 3a.499.499 0 1 1 0 1 .499.499 0 1 1 0-1zm8.55 2 4.95 4.95-6.05 6.05-4.95-4.949 6.05-6.05zm-11.55 0a.499.499 0 1 1 0 1 .499.499 0 1 1 0-1zm11.55 1.414-4.777 4.778 3.536 3.535 4.777-4.778-3.535-3.535zm-12.55 1.586a.499.499 0 1 1 0 1 .499.499 0 1 1 0-1zm1 3a.499.499 0 1 1 0 1 .499.499 0 1 1 0-1zm3 2a.499.499 0 1 1 0 1 .499.499 0 1 1 0-1z"/></g></svg>