<svg xmlns="http://www.w3.org/2000/svg" id="svg3529" width="22" height="22" version="1.1"><metadata id="metadata3534"/><g id="layer1" transform="translate(-453.143 -654.362)"><path style="opacity:1;fill:#373737;fill-opacity:1;stroke:none;stroke-width:2.79999995;stroke-miterlimit:4;stroke-dasharray:none;stroke-opacity:.55026455" id="rect4157" d="m4.5 3-.531.969L3 4.5l.969.531L4.5 6l.531-.969L6 4.5l-.969-.531L4.5 3zm5 0-.531.969L8 4.5l.969.531L9.5 6l.531-.969L11 4.5l-.969-.531L9.5 3zm6.672 0L3 16.172 5.828 19 19 5.828 16.172 3zm-.068 1.482 1.414 1.414-3.098 3.1-1.416-1.416 3.1-3.098zM6.5 7l-.531.969L5 8.5l.969.531L6.5 10l.531-.969L8 8.5l-.969-.531L6.5 7z" transform="translate(453.143 654.362)"/></g></svg>