<svg xmlns="http://www.w3.org/2000/svg" xmlns:xlink="http://www.w3.org/1999/xlink" id="svg3809" width="64" height="64" version="1.1"><defs id="defs3811"><linearGradient id="linearGradient4416" x1="26.212" x2="26.212" y1="44" y2="7" gradientTransform="matrix(-1.4054 0 0 1.4054 804.695 154.096)" gradientUnits="userSpaceOnUse" xlink:href="#linearGradient4143-6"/><linearGradient id="linearGradient4144" x1="16" x2="16" y1="30" y2="2" gradientTransform="matrix(2 0 0 -2 0 53)" gradientUnits="userSpaceOnUse" xlink:href="#linearGradient4155"/><linearGradient id="linearGradient4155"><stop style="stop-color:#fcd994;stop-opacity:1" id="stop4157" offset="0"/><stop style="stop-color:#fff6e1;stop-opacity:1" id="stop4159" offset="1"/></linearGradient><linearGradient id="linearGradient4143-6"><stop id="stop4145-8" offset="0" style="stop-color:#faae2a;stop-opacity:1"/><stop id="stop4147-0" offset="1" style="stop-color:#ffc35a;stop-opacity:1"/></linearGradient><linearGradient id="linearGradient4191" x1="17" x2="45" y1="13" y2="41" gradientUnits="userSpaceOnUse" xlink:href="#linearGradient4227"/><linearGradient id="linearGradient4227"><stop id="stop4229" offset="0" style="stop-color:#292c2f;stop-opacity:1"/><stop id="stop4231" offset="1" style="stop-color:#000;stop-opacity:0"/></linearGradient></defs><metadata id="metadata3814"/><g id="layer1" transform="translate(-736.857 -157.934)"><path style="fill:url(#linearGradient4416);fill-opacity:1;fill-rule:evenodd;stroke:none;stroke-width:1px;stroke-linecap:butt;stroke-linejoin:miter;stroke-opacity:1" id="path4445" d="M794.857 163.934v37.946H769.56l-14.054 14.054V201.88h-12.649v-37.946z"/><path style="fill:#e59305;fill-opacity:1;fill-rule:evenodd;stroke:none;stroke-width:1px;stroke-linecap:butt;stroke-linejoin:miter;stroke-opacity:1" id="path4256" d="M6 42.945v1h12.648v-1H6zm26.703 0L18.648 57v1l14.055-14.055H58v-1H32.703z" transform="translate(736.857 157.934)"/><path style="fill:url(#linearGradient4191);fill-rule:evenodd;stroke:none;stroke-width:1px;stroke-linecap:butt;stroke-linejoin:miter;stroke-opacity:1;fill-opacity:1;opacity:.2" id="path4186" d="M32 13v2l12 20.785.701 1.215H19l10.324 10.324 3.38-3.379H58V39L32 13z" transform="translate(736.857 157.934)"/><path style="opacity:1;fill:url(#linearGradient4144);fill-opacity:1;stroke:none" id="rect4133" d="M32 13 18.854 37h1.138l.008-.014V37h24v-.014l.008.014h1.138zm0 2.076L43.46 36H20.54zM31 20v10h2V20zm0 12v2h2v-2z" transform="translate(736.857 157.934)"/></g></svg>