<svg xmlns="http://www.w3.org/2000/svg" id="svg2" width="22" height="22" version="1.1" viewBox="0 0 22 22"><metadata id="metadata7"/><g id="layer1" transform="translate(0 -1030.362)"><path style="opacity:1;fill:#373737;fill-opacity:1;stroke:none" id="rect4161" d="M3 7c-.554 0-1 .446-1 1v6c0 .554.446 1 1 1h6c.554 0 1-.446 1-1v-1h2v1c0 .554.446 1 1 1h6c.554 0 1-.446 1-1V8c0-.554-.446-1-1-1h-6c-.554 0-1 .446-1 1v1h-2V8c0-.554-.446-1-1-1H3zm0 1h6v1c-.554 0-1 .446-1 1v2c0 .554.446 1 1 1v1H3V8zm10 0h6v6h-6v-1c.554 0 1-.446 1-1v-2c0-.554-.446-1-1-1V8zm-4 2h4v2H9v-2z" transform="translate(0 1030.362)"/></g></svg>