<svg xmlns="http://www.w3.org/2000/svg" id="svg3760" width="24" height="24" version="1.1"><metadata id="metadata3765"/><g id="layer1" transform="translate(-550.286 -606.648)"><path style="fill:#e6e6e6;fill-opacity:1;stroke:none;stroke-width:.02835826px;stroke-linecap:butt;stroke-linejoin:miter;stroke-opacity:1" id="path6264-9" d="M562.246 614.714c.19.253.048.919-.317 1.347-.364.427-3.046 3.41-3.046 3.41l-1.061-1.06 3.093-3.159s.808-.808 1.331-.538z"/><path style="fill:#e6e6e6;fill-opacity:1;stroke:none;stroke-width:.02835826px;stroke-linecap:butt;stroke-linejoin:miter;stroke-opacity:1" id="path6266-0" d="M558.677 619.805s-.07.76-.38 1.188c-.333.46-1.125.365-1.585.46-.507.253-.538.491-.713.871-.174.38-.142.523-.396.793-.11-.159-.27-1.173-.301-1.633.016-.38.11-1.473.92-2.075.807-.603 1.235-.793 1.235-.793z"/><rect style="fill:none;fill-opacity:1;stroke:#e6e6e6;stroke-width:.91204602;stroke-miterlimit:4;stroke-dasharray:none;stroke-opacity:1" id="rect4583-7-0" width="11.712" height="10.827" x="552.232" y="613.342"/><path style="fill:#e6e6e6;fill-opacity:1;stroke:none;stroke-width:.47142518;stroke-miterlimit:4;stroke-dasharray:none;stroke-opacity:1" id="path6465-9-1-7-8" d="M15.676 272.073h-2.824l.706-1.222.706-1.223.706 1.223z" transform="matrix(2.42648 0 0 2.6934 534.601 -110.982)"/></g></svg>