<svg xmlns="http://www.w3.org/2000/svg" id="svg8" width="16" height="16" version="1.1" viewBox="0 0 16 16"><metadata id="metadata12"/><g id="g4525" transform="translate(-1 -2)"><path id="path4512" d="M1 2c0 8 3 13 7 12.984V13.98C5 14 2 9 2 2zm15 0c0 7-3 12-6 11.97V15c4 0 7-5 7-13zM1 14v3h3v-1h1v-1H4v-1zm13 0v1h-1v1h1v1h3v-3zM2 15h1v1H2zm4 0v1h1v-1zm5 0v1h1v-1zm4 0h1v1h-1z" style="color:#373737;fill:#d2d2d2;fill-opacity:1;stroke:none"/><path id="path4514" d="m9 11-4 7h8zm0 3 1 2H8z" style="color:#3daee9;fill:currentColor;fill-opacity:1;stroke:none"/></g></svg>