<svg xmlns="http://www.w3.org/2000/svg" id="svg8" width="16" height="16" version="1.1" viewBox="0 0 16 16"><metadata id="metadata12"/><g id="g4506" transform="translate(-3 -3.5)"><path id="path4493" d="M3.002 3.496 3 3.498v.996l.002.002C6 4.5 8 12.5 8 15.5l1-1c0-3-2-11-5.998-11.004zM9 4.5v3h1v1h1v-1h1v-3zm9-1c0 7-4 11-7 12v1c4-1 8-6 8-13zm-8 2h1v1h-1zm0 4v1h1v-1zm0 2v1h1v-1zm6 4v1h-1v1h1v1h3v-3zm-3 1v1h1v-1zm4 0h1v1h-1z" style="color:#373737;fill:#d2d2d2;fill-opacity:1;stroke:none"/><path id="path4495" d="M7 13.5v5h5v-5zm2 2h1v1H9z" style="color:#3daee9;fill:currentColor;fill-opacity:1;stroke:none;stroke-width:1"/></g></svg>