<svg xmlns="http://www.w3.org/2000/svg" width="32" height="32" version="1.1" viewBox="0 0 32 32" xml:space="preserve"><path fill="#fafafa" stroke-linejoin="round" stroke-width="3.78" d="m23 29 2e-3 -1.997c0.0021-0.55534-0.4486-1.0061-1.0039-1.0039v-8.002h2.0005c-0.0021 0.55534 0.4486 1.0061 1.0039 1.0039l1.9975-9.84e-4v-5h-14v5l2 9.84e-4c0.55246-2e-3 0.99868-0.45148 0.99656-1.0039h2.0005v8.002c-0.55246 2e-3 -0.99868 0.45148-0.99656 1.0039l-4.92e-4 1.997z" color="#000" style="-inkscape-stroke:none;paint-order:stroke fill markers"/><path d="m14 15v3h1v-1h4v10h-1v1h4v-1h-1v-10h4v1h1v-3z" style="paint-order:stroke fill markers"/><g stroke-linejoin="round"><path fill="#fff" stroke-width="3.464" d="m13 5v3h-5v-3zm-8-1.2e-6v3h-5v-3zm0 3h3v5h-3zm0-8h3v5h-3z" style="paint-order:stroke fill markers"/><path stroke-width="2" d="m13 6v1h-5v-1zm-8-1.1e-6v1h-5v-1zm1 2h1v5h-1zm0-8h1v5h-1z" style="paint-order:stroke fill markers"/></g><metadata/></svg>