<svg xmlns="http://www.w3.org/2000/svg" id="svg16" width="16" height="16" version="1.1" viewBox="0 0 16 16"><metadata id="metadata22"/><path id="path892" d="M4.5 10A2.5 2.5 0 0 0 2 12.5 2.5 2.5 0 0 0 4.5 15 2.5 2.5 0 0 0 7 12.5 2.5 2.5 0 0 0 4.5 10zm0 1A1.5 1.5 0 0 1 6 12.5 1.5 1.5 0 0 1 4.5 14 1.5 1.5 0 0 1 3 12.5 1.5 1.5 0 0 1 4.5 11z" style="fill:#373737;fill-opacity:1;stroke:none;stroke-width:.5;stroke-linejoin:bevel;stroke-miterlimit:4;stroke-dasharray:none;stroke-dashoffset:0;stroke-opacity:1"/><path id="path897" d="M12 1 5 11h1v1l6-9V1zM8 7.5a.5.5 0 0 1 .5.5.5.5 0 0 1-.5.5.5.5 0 0 1-.5-.5.5.5 0 0 1 .5-.5z" style="fill:#373737;fill-opacity:1;stroke:none;stroke-width:1px;stroke-linecap:butt;stroke-linejoin:miter;stroke-opacity:1"/><path id="path892-6" d="M11.5 10a2.5 2.5 0 0 1 2.5 2.5 2.5 2.5 0 0 1-2.5 2.5A2.5 2.5 0 0 1 9 12.5a2.5 2.5 0 0 1 2.5-2.5zm0 1a1.5 1.5 0 0 0-1.5 1.5 1.5 1.5 0 0 0 1.5 1.5 1.5 1.5 0 0 0 1.5-1.5 1.5 1.5 0 0 0-1.5-1.5z" style="fill:#373737;fill-opacity:1;stroke:none;stroke-width:.5;stroke-linejoin:bevel;stroke-miterlimit:4;stroke-dasharray:none;stroke-dashoffset:0;stroke-opacity:1"/><path id="path897-7" d="M4 1v2l6 9v-1h1L4 1zm4 6.5a.5.5 0 0 1 .5.5.5.5 0 0 1-.5.5.5.5 0 0 1-.5-.5.5.5 0 0 1 .5-.5z" style="fill:#373737;fill-opacity:1;stroke:none;stroke-width:1px;stroke-linecap:butt;stroke-linejoin:miter;stroke-opacity:1"/><path id="rect936" d="M0 5h4v1H0z" style="fill:#373737;fill-opacity:1;stroke:none;stroke-width:.5;stroke-linejoin:bevel;stroke-miterlimit:4;stroke-dasharray:none;stroke-dashoffset:0;stroke-opacity:1"/><path id="rect936-3" d="M12 5h4v1h-4z" style="fill:#373737;fill-opacity:1;stroke:none;stroke-width:.5;stroke-linejoin:bevel;stroke-miterlimit:4;stroke-dasharray:none;stroke-dashoffset:0;stroke-opacity:1"/></svg>