<svg xmlns="http://www.w3.org/2000/svg" id="svg6190" width="16" height="16" version="1.1"><metadata id="metadata6196"/><g id="layer1" transform="translate(6.025 -1038.1)"><path id="path1168" d="M1.975 1038.1a8 8 0 0 0-8 8 8 8 0 0 0 8 8 8 8 0 0 0 8-8 8 8 0 0 0-8-8zm0 2a6 6 0 0 1 6 6 6 6 0 0 1-6 6 6 6 0 0 1-6-6 6 6 0 0 1 6-6z" style="opacity:1;vector-effect:none;fill:#373737;fill-opacity:1;stroke:none;stroke-width:4;stroke-linecap:square;stroke-linejoin:round;stroke-miterlimit:4;stroke-dasharray:none;stroke-dashoffset:3.20000005;stroke-opacity:.55063291"/><rect id="rect2767" width="2" height="8" x="-739.308" y="737.1" transform="rotate(-45)" style="opacity:1;vector-effect:none;fill:#373737;fill-opacity:1;stroke:none;stroke-width:1;stroke-linecap:square;stroke-linejoin:round;stroke-miterlimit:4;stroke-dasharray:1,1;stroke-dashoffset:.40000001;stroke-opacity:1"/><rect id="rect2767-9" width="2" height="8" x="740.1" y="734.308" transform="rotate(45)" style="opacity:1;vector-effect:none;fill:#373737;fill-opacity:1;stroke:none;stroke-width:1;stroke-linecap:square;stroke-linejoin:round;stroke-miterlimit:4;stroke-dasharray:1,1;stroke-dashoffset:.40000001;stroke-opacity:1"/></g></svg>