<svg xmlns="http://www.w3.org/2000/svg" id="svg3760" width="16" height="16" version="1.1"><metadata id="metadata3765"/><g id="layer1" transform="matrix(.875 0 0 .875 -480.5 -536.817)"><path id="path835" d="M8 0a8 8 0 0 0-8 8 8 8 0 0 0 8 8 8 8 0 0 0 8-8 8 8 0 0 0-8-8zm0 2a6 6 0 0 1 6 6 6 6 0 0 1-6 6 6 6 0 0 1-6-6 6 6 0 0 1 6-6z" transform="translate(550.286 614.648)" style="opacity:1;vector-effect:none;fill:#373737;fill-opacity:1;stroke:none;stroke-width:4;stroke-linecap:square;stroke-linejoin:round;stroke-miterlimit:4;stroke-dasharray:none;stroke-dashoffset:3.2;stroke-opacity:.550633"/><path id="path842" d="m554.043 616.94 9.9 9.9-1.314 1.515-10-10z" style="fill:#373737;fill-opacity:1;stroke:none;stroke-width:1px;stroke-linecap:butt;stroke-linejoin:miter;stroke-opacity:1"/></g></svg>