<svg xmlns="http://www.w3.org/2000/svg" id="svg6190" width="22" height="22" version="1.1"><metadata id="metadata6196"/><g id="g6344" transform="translate(0 -1)"><path style="color:#000;fill:#373737;fill-opacity:1;fill-rule:nonzero;stroke:none;stroke-width:1;marker:none;visibility:visible;display:inline;overflow:visible;enable-background:accumulate" id="path6348" d="M2 4v13h6l1-1-1-1H5V6h6l1-2H2zm15 0-1 2h1v9h-2l-1 1 1 1h5V4h-3zM3 5h1v1H3V5zm14.969 0h1v1h-1V5zM3 7h1v1H3V7zm14.969 0h1v1h-1V7zM3 9h1v1H3V9zm14.969 0h1v1h-1V9zM3 11h1v1H3v-1zm14.969 0h1v1h-1v-1zM3 13h1v1H3v-1zm14.969 0h1v1h-1v-1zM3 15h1v1H3v-1zm14.969 0h1v1h-1v-1z" transform="translate(0 1)"/><path style="fill:#373737;fill-opacity:1;fill-rule:evenodd;stroke:none;stroke-width:1px;stroke-linecap:butt;stroke-linejoin:miter;stroke-opacity:1" id="path4457" d="M8 14h2l5 6h-2z"/><path style="fill:#373737;fill-opacity:1;fill-rule:evenodd;stroke:none;stroke-width:1px;stroke-linecap:butt;stroke-linejoin:miter;stroke-opacity:1" id="path4457-3" d="M15 14h-2l-5 6h2z"/></g><g id="layer1"><path style="fill:#373737;fill-opacity:1;fill-rule:evenodd;stroke:none;stroke-width:1px;stroke-linecap:butt;stroke-linejoin:miter;stroke-opacity:1" id="path4411" d="m14 2-4 8v2l2-1 4-8z"/></g></svg>