<svg xmlns="http://www.w3.org/2000/svg" xmlns:xlink="http://www.w3.org/1999/xlink" id="svg820" width="32" height="32" version="1.1" viewBox="0 0 32 32"><defs id="defs814"><linearGradient id="linearGradient4358" x1="401.571" x2="401.571" y1="535.798" y2="520.798" gradientTransform="matrix(1.25 0 0 1.2 -484.714 468.561)" gradientUnits="userSpaceOnUse" xlink:href="#linearGradient4424"/><linearGradient id="linearGradient4424"><stop id="stop4426" offset="0" style="stop-color:#60a5e7;stop-opacity:0"/><stop id="stop4428" offset="1" style="stop-color:#a6f3fb;stop-opacity:.25773194"/></linearGradient></defs><metadata id="metadata817"/><g id="layer1" transform="translate(.072 -1091.192)"><path style="opacity:1;vector-effect:none;fill:#373737;fill-opacity:1;stroke:none;stroke-width:2;stroke-linecap:butt;stroke-linejoin:bevel;stroke-miterlimit:4;stroke-dasharray:none;stroke-dashoffset:3.20000005;stroke-opacity:1" id="rect2175-7" d="m17.198 1099.53-1.65 2.858a7 7 30 0 0-1.42-.187l-.854-3.186-3.863 1.035.852 3.18a7 7 30 0 0-1.14.877l-2.853-1.648-2 3.464 2.857 1.65a7 7 30 0 0-.187 1.42l-3.186.854 1.036 3.864 3.18-.853a7 7 30 0 0 .876 1.14l-1.648 2.853 3.464 2 1.65-2.857a7 7 30 0 0 1.421.187l.854 3.186 3.863-1.035-.852-3.18a7 7 30 0 0 1.14-.876l2.853 1.647 2-3.464-2.857-1.65a7 7 30 0 0 .186-1.42l3.186-.854-1.035-3.864-3.18.853a7 7 30 0 0-.876-1.14l1.647-2.853zm-1.268 6.197a4 4 0 0 1 1.464 5.464 4 4 0 0 1-5.464 1.464 4 4 0 0 1-1.464-5.464 4 4 0 0 1 5.464-1.464z"/><path style="opacity:1;vector-effect:none;fill:#373737;fill-opacity:1;stroke:none;stroke-width:2;stroke-linecap:butt;stroke-linejoin:bevel;stroke-miterlimit:4;stroke-dasharray:none;stroke-dashoffset:3.20000005;stroke-opacity:1" id="rect2261" d="m18.585 1096.867.98.566a4 4 0 0 0 1.05 3.917l-.566.981 1.732 1 .566-.979a4 4 0 0 0 3.917-1.05l.982.567 1-1.732-.98-.566a4 4 0 0 0-1.051-3.917l.566-.982-1.732-1-.565.98a4 4 0 0 0-3.918 1.05l-.981-.567zm3.098.634a2 2 30 0 1 2.732-.732 2 2 30 0 1 .732 2.732 2 2 30 0 1-2.732.732 2 2 30 0 1-.732-2.732z"/></g></svg>