<svg xmlns="http://www.w3.org/2000/svg" id="svg6190" width="22" height="22" version="1.1"><metadata id="metadata6196"/><g id="g6344" transform="translate(0 -1)"><path id="path6348" d="M2 4v13h18V4H4zm1 1h1v1H3zm14.969 0h1v1h-1zM5 6h12v9H5zM3 7h1v1H3zm14.969 0h1v1h-1zM3 9h1v1H3zm14.969 0h1v1h-1zM3 11h1v1H3zm14.969 0h1v1h-1zM3 13h1v1H3zm14.969 0h1v1h-1zM3 15h1v1H3zm14.969 0h1v1h-1z" transform="translate(0 1)" style="color:#000;display:inline;overflow:visible;visibility:visible;fill:#373737;fill-opacity:1;fill-rule:nonzero;stroke:none;stroke-width:1;marker:none;enable-background:accumulate"/></g></svg>