<svg xmlns="http://www.w3.org/2000/svg" width="16" height="16" version="1.1" viewBox="0 0 16 16"><g stroke-width="2" opacity=".5"><g fill="#373737"><rect width="2" height="2" x="7" y="13" opacity="1"/><rect width="8" height="1" x="4" y="15" opacity="1"/><rect width="28" height="17" x="2" y="1094.5" fill-opacity=".251" display="none" opacity="1"/></g><rect width="15" height="8" x=".5" y="4.5" fill="none" stroke="#373737" stroke-linecap="square" stroke-width="1"/></g><g fill="#373737" stroke-width="1.401" transform="matrix(.71376 0 0 .71376 4.6423 -.062454)"><path d="m8.338 4.35a0.5 0.5 0 0 0-0.342 0.146l-7 7a0.5 0.5 0 0 0-0.142 0.299l-0.35 3.15a0.5 0.5 0 0 0 0.55 0.551l3.2-0.35a0.5 0.5 0 0 0 0.299-0.142l7-7a0.5 0.5 0 0 0-2e-3 -0.711l-2.851-2.799a0.5 0.5 0 0 0-0.363-0.144zm0.016 1.205 2.136 2.097-6.52 6.52-2.406 0.264 0.264-2.356z" color="#000" color-rendering="auto" dominant-baseline="auto" image-rendering="auto" shape-rendering="auto" solid-color="#000000" style="font-feature-settings:normal;font-variant-alternates:normal;font-variant-caps:normal;font-variant-ligatures:normal;font-variant-numeric:normal;font-variant-position:normal;isolation:auto;mix-blend-mode:normal;shape-padding:0;text-decoration-color:#000;text-decoration-line:none;text-decoration-style:solid;text-indent:0;text-orientation:mixed;text-transform:none;white-space:normal"/><rect width="2" height="9" x="1.98" y="6.836" stroke-width=".701" class="st1" transform="rotate(-45)"/><path stroke-width=".701" d="m12.6 7.65-4.25-4.25 2.45-2.45c1.15-1.15 3.05-1.15 4.25 0 1.15 1.15 1.15 3.05 0 4.25z" class="st1"/></g></svg>