<svg xmlns="http://www.w3.org/2000/svg" id="svg6190" width="22" height="22" version="1.1"><metadata id="metadata6196"/><g id="g6460"><path style="color:#000;fill:#d2d2d2;fill-opacity:1;fill-rule:nonzero;stroke:none;stroke-width:1;marker:none;visibility:visible;display:inline;overflow:visible;enable-background:accumulate" id="path6416" d="M1 7v11h16v-4h-1v1h-1v-1h-1v2H4V9h1V7H1zm1 1h1v1H2V8zm0 2h1v1H2v-1zm0 2h1v1H2v-1zm0 2h1v1H2v-1zm0 2h1v1H2v-1zm12.969 0h1v1h-1v-1z"/><path style="color:#000;fill:#d2d2d2;fill-opacity:1;fill-rule:nonzero;stroke:none;stroke-width:1;marker:none;visibility:visible;display:inline;overflow:visible;enable-background:accumulate" id="rect6143" d="M5 3v11h16V3H5zm1 1h1v1H6V4zm12.969 0h1v1h-1V4zM8 5h10v7H8V5zM6 6h1v1H6V6zm12.969 0h1v1h-1V6zM6 8h1v1H6V8zm12.969 0h1v1h-1V8zM6 10h1v1H6v-1zm12.969 0h1v1h-1v-1zM6 12h1v1H6v-1zm12.969 0h1v1h-1v-1z"/></g></svg>