<svg xmlns="http://www.w3.org/2000/svg" id="svg8" width="22" height="22" version="1.1" viewBox="0 0 5.821 5.821"><metadata id="metadata5"/><g id="layer1" transform="translate(0 -291.18)"><path id="path5822" d="M2.646 293.56v.53l1.058 1.058v1.323l1.058.529v-1.852l1.059-1.058v-.53zm.529.53h2.117l-.794.793v1.588l-.53-.265v-1.323z" style="fill:#d2d2d2;fill-opacity:1;fill-rule:evenodd;stroke:none;stroke-width:.35277778px;stroke-linecap:butt;stroke-linejoin:miter;stroke-opacity:1"/><g id="layer1-6" transform="matrix(.26458 0 0 .26458 -1.058 18.033)"><path id="path824" d="M15 1035.362v2h-4a5 5 0 0 0 0 10h2v2h-2a7 7 0 0 1-7-7c0-3.866 3.134-7.06 7-7z" style="opacity:1;vector-effect:none;fill:#d2d2d2;fill-opacity:1;stroke:none;stroke-width:4;stroke-linecap:square;stroke-linejoin:round;stroke-miterlimit:4;stroke-dasharray:none;stroke-dashoffset:3.20000005;stroke-opacity:.55063291"/><path id="path842" d="m17 1036.362-4 4v-8z" style="fill:#d2d2d2;fill-opacity:1;stroke:none;stroke-width:1px;stroke-linecap:butt;stroke-linejoin:miter;stroke-opacity:1"/></g></g></svg>