<svg xmlns="http://www.w3.org/2000/svg" xmlns:osb="http://www.openswatchbook.org/uri/2009/osb" id="svg6190" width="16" height="16" version="1.1"><metadata id="metadata6196"/><defs id="defs6194"><linearGradient id="linearGradient1163" gradientTransform="translate(-4 4)" osb:paint="solid"><stop id="stop1161" offset="0" style="stop-color:#d2d2d2;stop-opacity:1"/></linearGradient></defs><path id="path1641" d="M8 0a8 8 0 1 0 0 16A8 8 0 0 0 8 0zm0 2a6 6 0 0 1 6 6 6 6 0 0 1-6 6 6 6 0 0 1-6-6 6 6 0 0 1 6-6z" style="opacity:1;vector-effect:none;fill:#d2d2d2;fill-opacity:1;stroke:none;stroke-width:4;stroke-linecap:square;stroke-linejoin:round;stroke-miterlimit:4;stroke-dasharray:none;stroke-dashoffset:3.20000005;stroke-opacity:.55063291"/><rect style="opacity:1;vector-effect:none;fill:#d2d2d2;fill-opacity:1;stroke:none;stroke-width:4.45366764;stroke-linecap:square;stroke-linejoin:round;stroke-miterlimit:4;stroke-dasharray:none;stroke-dashoffset:3.20000005;stroke-opacity:.55063291" id="rect1152-3-5" width="2" height="14.37" x="7" y="-15" transform="rotate(90)"/><rect style="opacity:1;vector-effect:none;fill:#d2d2d2;fill-opacity:1;stroke:none;stroke-width:4.45366764;stroke-linecap:square;stroke-linejoin:round;stroke-miterlimit:4;stroke-dasharray:none;stroke-dashoffset:3.20000005;stroke-opacity:.55063291" id="rect1152-3-5-3" width="2" height="14.37" x="9.768" y="-4.164" transform="rotate(30)"/><rect style="opacity:1;vector-effect:none;fill:#d2d2d2;fill-opacity:1;stroke:none;stroke-width:4.45366764;stroke-linecap:square;stroke-linejoin:round;stroke-miterlimit:4;stroke-dasharray:none;stroke-dashoffset:3.20000005;stroke-opacity:.55063291" id="rect1152-3-5-3-6" width="2" height="14.37" x="1.768" y="3.65" transform="rotate(-30)"/></svg>