<svg xmlns="http://www.w3.org/2000/svg" id="svg3815" width="16" height="16" version="1.1"><metadata id="metadata3820"/><g id="layer1" transform="translate(-461.714 -531.79)"><path style="opacity:1;vector-effect:none;fill:#d2d2d2;fill-opacity:1;stroke:none;stroke-width:4;stroke-linecap:square;stroke-linejoin:round;stroke-miterlimit:4;stroke-dasharray:none;stroke-dashoffset:3.20000005;stroke-opacity:.55063291" id="path858" d="M470.714 533.877v1.015a5 5 0 0 1 1.754.73l.717-.716a6 6 0 0 0-2.47-1.03zm-2 .004a6 6 0 0 0-2.472 1.023l.718.719a5 5 0 0 1 1.754-.727zm5.887 2.437-.719.719a5 5 0 0 1 .727 1.754h1.015a6 6 0 0 0-1.023-2.473zm-9.771.002a6 6 0 0 0-1.03 2.47h1.016a5 5 0 0 1 .73-1.753zm-1.026 4.47a6 6 0 0 0 1.024 2.474l.718-.72a5 5 0 0 1-.726-1.753zm10.809 0a5 5 0 0 1-.73 1.755l.716.717a6 6 0 0 0 1.03-2.471zm-7.653 3.169-.716.717a6 6 0 0 0 2.47 1.029v-1.016a5 5 0 0 1-1.754-.73zm5.508 0a5 5 0 0 1-1.754.726v1.016a6 6 0 0 0 2.473-1.023z"/><rect style="opacity:1;vector-effect:none;fill:#d2d2d2;fill-opacity:1;stroke:none;stroke-width:3.26598692;stroke-linecap:square;stroke-linejoin:round;stroke-miterlimit:4;stroke-dasharray:none;stroke-dashoffset:3.20000005;stroke-opacity:.55063291" id="rect950" width="1" height="8" x="-50.052" y="709.828" transform="rotate(-45)"/><rect style="opacity:1;vector-effect:none;fill:#d2d2d2;fill-opacity:1;stroke:none;stroke-width:3.2659862;stroke-linecap:square;stroke-linejoin:round;stroke-miterlimit:4;stroke-dasharray:none;stroke-dashoffset:3.20000005;stroke-opacity:.55063291" id="rect950-6" width="1" height="8" x="-714.328" y="-53.552" transform="rotate(-135)"/></g></svg>