<svg xmlns="http://www.w3.org/2000/svg" id="svg6190" width="16" height="16" version="1.1"><metadata id="metadata6196"/><g id="g6344" transform="matrix(.77778 0 0 .77778 -.556 -.944)"><path id="path6348" d="M1 3v9h14V3zm1 1h1v1H2zm2 0h8v7H4zm9 0h1v1h-1zM2 6h1v1H2zm11 0h1v1h-1zM2 8h1v1H2zm11 0h1v1h-1zM2 10h1v1H2zm11 0h1v1h-1z" transform="matrix(1.28571 0 0 1.28571 .714 1.214)" style="color:#000;display:inline;overflow:visible;visibility:visible;fill:#d2d2d2;fill-opacity:1;fill-rule:nonzero;stroke:none;stroke-width:.77777779;marker:none;enable-background:accumulate"/></g></svg>