<svg xmlns="http://www.w3.org/2000/svg" id="svg6190" width="22" height="22" version="1.1"><metadata id="metadata6196"/><g id="layer1"><path style="color:#000;display:inline;overflow:visible;visibility:visible;fill:#d2d2d2;fill-opacity:1;fill-rule:nonzero;stroke:none;stroke-width:1;marker:none;enable-background:accumulate" id="path3308" d="M10 7.5v6l3-2.996z"/><path id="path6348-2" d="M2 4v13h2.375l1.375-2H5V6h6.938l1.374-2H2zm15.313 0-1.375 2H17v9H9.75l-1.375 2H20V4H17.312zM3 5h1v1H3V5zm14.969 0h1v1h-1V5zM3 7h1v1H3V7zm14.969 0h1v1h-1V7zM3 9h1v1H3V9zm14.969 0h1v1h-1V9zM3 11h1v1H3v-1zm14.969 0h1v1h-1v-1zM3 13h1v1H3v-1zm14.969 0h1v1h-1v-1zM3 15h1v1H3v-1zm14.969 0h1v1h-1v-1z" style="color:#000;display:inline;overflow:visible;visibility:visible;fill:#d2d2d2;fill-opacity:1;fill-rule:nonzero;stroke:none;stroke-width:1;marker:none;enable-background:accumulate"/><path style="color:#000;display:inline;overflow:visible;visibility:visible;fill:#d2d2d2;fill-opacity:1;fill-rule:nonzero;stroke:none;stroke-width:1;marker:none;enable-background:accumulate" id="path3370" d="m15.656 2-2.742 4h2l2.742-4h-2zM6.742 15 4 19h2l2.742-4h-2z"/></g></svg>