<svg xmlns="http://www.w3.org/2000/svg" xmlns:xlink="http://www.w3.org/1999/xlink" id="svg2" width="16" height="16" version="1.1" viewBox="0 0 16 16"><defs id="defs4"><linearGradient id="linearGradient5755"><stop style="stop-color:#d2d2d2;stop-opacity:1" id="stop5757" offset="0"/><stop style="stop-color:#d2d2d2;stop-opacity:0" id="stop5759" offset="1"/></linearGradient><linearGradient id="linearGradient5761" x1="6" x2="6" y1="1043.362" y2="1049.362" gradientTransform="translate(6 -4)" gradientUnits="userSpaceOnUse" xlink:href="#linearGradient5755"/></defs><metadata id="metadata7"/><g id="layer1" transform="translate(0 -1036.362)"><path id="rect5742" d="M8 1037.362v6h1v-5h6v8h-5v1h6v-10z" style="color:#000;clip-rule:nonzero;display:inline;overflow:visible;visibility:visible;opacity:1;isolation:auto;mix-blend-mode:normal;color-interpolation:sRGB;color-interpolation-filters:linearRGB;solid-color:#000;solid-opacity:1;fill:#d2d2d2;fill-opacity:1;fill-rule:nonzero;stroke:none;stroke-width:0;stroke-linecap:butt;stroke-linejoin:miter;stroke-miterlimit:4;stroke-dasharray:none;stroke-dashoffset:0;stroke-opacity:1;marker:none;color-rendering:auto;image-rendering:auto;shape-rendering:auto;text-rendering:auto;enable-background:accumulate"/><rect style="color:#000;clip-rule:nonzero;display:inline;overflow:visible;visibility:visible;opacity:1;isolation:auto;mix-blend-mode:normal;color-interpolation:sRGB;color-interpolation-filters:linearRGB;solid-color:#000;solid-opacity:1;fill:url(#linearGradient5761);fill-opacity:1;fill-rule:nonzero;stroke:none;stroke-width:0;stroke-linecap:butt;stroke-linejoin:miter;stroke-miterlimit:4;stroke-dasharray:none;stroke-dashoffset:0;stroke-opacity:1;marker:none;color-rendering:auto;image-rendering:auto;shape-rendering:auto;text-rendering:auto;enable-background:accumulate" id="rect5753" width="4" height="6" x="10" y="1039.362" rx="0" ry="0"/><path id="path824" d="M10 1044.604c-2.286 4.572-3.81 7.62-7.619 7.62-3.81 0-3.048-7.62 2.286-7.62 4.571 0 .762 6.858 5.333 6.858-5.333 3.81-3.048-5.7-5.333-5.7-3.048 0-3.81 5.303-1.524 5.303s4.571-4.937 5.333-6.46z" style="fill:#d2d2d2;fill-opacity:1;stroke:none;stroke-width:.76190478px;stroke-linecap:butt;stroke-linejoin:miter;stroke-opacity:1"/></g></svg>