<svg xmlns="http://www.w3.org/2000/svg" xmlns:xlink="http://www.w3.org/1999/xlink" id="svg2" width="16" height="16" version="1.1" viewBox="0 0 16 16"><defs id="defs4"><linearGradient id="linearGradient5761" x1="6" x2="6" y1="1043.362" y2="1049.362" gradientTransform="translate(6 -2)" gradientUnits="userSpaceOnUse" xlink:href="#linearGradient5755"/><linearGradient id="linearGradient5755"><stop id="stop5757" offset="0" style="stop-color:#d2d2d2;stop-opacity:1"/><stop id="stop5759" offset="1" style="stop-color:#d2d2d2;stop-opacity:0"/></linearGradient></defs><metadata id="metadata7"/><g id="layer1" transform="translate(0 -1036.362)"><path id="path838" d="m5 1044.362-5-5v10z" style="fill:#d2d2d2;fill-opacity:1;stroke:none;stroke-width:1px;stroke-linecap:butt;stroke-linejoin:miter;stroke-opacity:1"/><path id="path4270" d="M11.302 1039.372a5 5 0 0 0-3.053.824l.722.723a4 4 0 0 1 2.065-.553zm1.931.521-.266.993a4 4 0 0 1 1.514 1.51l.988-.266a5 5 0 0 0-2.236-2.237zm-6.398 1.715a5 5 0 0 0-.664 1.46 5 5 0 0 0-.157 1.596l.987-.265a4 4 0 0 1 .136-1.072 4 4 0 0 1 .422-.995zm9.152 2.452-.988.266a4 4 0 0 1-.135 1.072 4 4 0 0 1-.422.994l.724.724a5 5 0 0 0 .664-1.46 5 5 0 0 0 .157-1.596zm-8.468 2.269-.987.265a5 5 0 0 0 2.236 2.237l.265-.992a4 4 0 0 1-1.514-1.51zm5.51 1.477a4 4 0 0 1-2.064.552l-.267.995a5 5 0 0 0 3.054-.824z" style="color:#000;clip-rule:nonzero;display:inline;overflow:visible;visibility:visible;opacity:1;isolation:auto;mix-blend-mode:normal;color-interpolation:sRGB;color-interpolation-filters:linearRGB;solid-color:#000;solid-opacity:1;fill:#d2d2d2;fill-opacity:1;fill-rule:nonzero;stroke:none;stroke-width:1;stroke-linecap:butt;stroke-linejoin:miter;stroke-miterlimit:4;stroke-dasharray:none;stroke-dashoffset:0;stroke-opacity:1;marker:none;color-rendering:auto;image-rendering:auto;shape-rendering:auto;text-rendering:auto;enable-background:accumulate"/></g></svg>