<svg xmlns="http://www.w3.org/2000/svg" xmlns:xlink="http://www.w3.org/1999/xlink" id="svg2" width="16" height="16" version="1.1" viewBox="0 0 16 16"><defs id="defs4"><linearGradient id="linearGradient5761" x1="6" x2="6" y1="1043.362" y2="1049.362" gradientTransform="translate(6 -2)" gradientUnits="userSpaceOnUse" xlink:href="#linearGradient5755"/><linearGradient id="linearGradient5755"><stop id="stop5757" offset="0" style="stop-color:#d2d2d2;stop-opacity:1"/><stop id="stop5759" offset="1" style="stop-color:#d2d2d2;stop-opacity:0"/></linearGradient></defs><metadata id="metadata7"/><g id="layer1" transform="translate(0 -1036.362)"><path id="path838" d="m5 1044.362-5-5v10z" style="fill:#d2d2d2;fill-opacity:1;stroke:none;stroke-width:1px;stroke-linecap:butt;stroke-linejoin:miter;stroke-opacity:1"/><path id="path5625" d="M14.432 1040.726a5 5 0 0 0-6.431-.363 5 5 0 0 0-.53.47l.689.688a4.021 4.021 0 0 1 .428-.375 4.021 4.021 0 0 1 5.173.292 4.021 4.021 0 0 1 .455.51 4.021 4.021 0 0 1 .661 3.462l.77.771a5 5 0 0 0-.648-4.823 5 5 0 0 0-.567-.632zm-.59 6.477a4.021 4.021 0 0 1-.423.373l-.01.01a4.021 4.021 0 0 1-5.628-.81 4.021 4.021 0 0 1-.657-3.459l-.77-.77a5 5 0 0 0 .644 4.815 5 5 0 0 0 6.997 1.008l.012-.01a5 5 0 0 0 .525-.464l-.69-.69z" style="color:#000;clip-rule:nonzero;display:inline;overflow:visible;visibility:visible;opacity:1;isolation:auto;mix-blend-mode:normal;color-interpolation:sRGB;color-interpolation-filters:linearRGB;solid-color:#000;solid-opacity:1;fill:#d2d2d2;fill-opacity:1;fill-rule:nonzero;stroke:none;stroke-width:0;stroke-linecap:butt;stroke-linejoin:miter;stroke-miterlimit:4;stroke-dasharray:none;stroke-dashoffset:0;stroke-opacity:1;marker:none;color-rendering:auto;image-rendering:auto;shape-rendering:auto;text-rendering:auto;enable-background:accumulate"/><path id="path5655" d="M8.88 1040.827H7.464l2.121 2.121.707-.707z" style="fill:#d2d2d2;fill-opacity:1;fill-rule:evenodd;stroke:none;stroke-width:1px;stroke-linecap:butt;stroke-linejoin:miter;stroke-opacity:1"/><path id="path5668" d="m12.415 1045.776-.708.707 1.415 1.415h1.414z" style="fill:#d2d2d2;fill-opacity:1;fill-rule:evenodd;stroke:none;stroke-width:1px;stroke-linecap:butt;stroke-linejoin:miter;stroke-opacity:1"/></g></svg>