<svg xmlns="http://www.w3.org/2000/svg" xmlns:xlink="http://www.w3.org/1999/xlink" id="svg820" width="32" height="32" version="1.1" viewBox="0 0 32 32"><defs id="defs814"><linearGradient id="linearGradient4358" x1="401.571" x2="401.571" y1="535.798" y2="520.798" gradientTransform="matrix(1.25 0 0 1.2 -484.714 468.561)" gradientUnits="userSpaceOnUse" xlink:href="#linearGradient4424"/><linearGradient id="linearGradient4424"><stop style="stop-color:#60a5e7;stop-opacity:0" id="stop4426" offset="0"/><stop style="stop-color:#a6f3fb;stop-opacity:.25773194" id="stop4428" offset="1"/></linearGradient></defs><metadata id="metadata817"/><g id="layer1" transform="translate(0 -1090.52)"><path id="rect4122" d="M2 2v28h28V2zm2 2h24v24H4zm6 3a3 3 0 0 0-3 3 3 3 0 0 0 3 3 3 3 0 0 0 3-3 3 3 0 0 0-3-3zm2 12-7 7h6l4-4zm8 0-7 7h14z" transform="translate(0 1090.52)" style="fill:#d2d2d2;fill-opacity:1;stroke:none;stroke-width:2.33333325"/></g></svg>