<svg xmlns="http://www.w3.org/2000/svg" xmlns:osb="http://www.openswatchbook.org/uri/2009/osb" id="svg6190" width="16" height="16" version="1.1"><metadata id="metadata6196"/><defs id="defs6194"><linearGradient id="linearGradient1152" gradientTransform="matrix(1.08154 0 0 1.08154 -.657 9.283)" osb:paint="solid"><stop id="stop1150" offset="0" style="stop-color:#373737;stop-opacity:1"/></linearGradient></defs><g id="layer1" transform="translate(6.025 -1038.1)"><path id="path1142" d="M-2.025 1042.1a4 4 0 0 0 0 8c2 0 4-1 5-4-1-3-3-4-5-4zm0 2s2 0 3 2c-1 2-3 2-3 2a2 2 0 1 1 0-4z" style="opacity:1;vector-effect:none;fill:#d2d2d2;fill-opacity:1;stroke:none;stroke-width:4;stroke-linecap:square;stroke-linejoin:round;stroke-miterlimit:4;stroke-dasharray:none;stroke-dashoffset:3.20000005;stroke-opacity:.55063291"/><path id="path1142-3" d="M5.975 1042.1a4 4 0 0 1 0 8c-2 0-4-1-5-4 1-3 3-4 5-4zm0 2s-2 0-3 2c1 2 3 2 3 2a2 2 0 1 0 0-4z" style="opacity:1;vector-effect:none;fill:#d2d2d2;fill-opacity:1;stroke:none;stroke-width:4;stroke-linecap:square;stroke-linejoin:round;stroke-miterlimit:4;stroke-dasharray:none;stroke-dashoffset:3.20000005;stroke-opacity:.55063291"/></g></svg>