<svg xmlns="http://www.w3.org/2000/svg" id="svg2" width="16" height="16" version="1.1" viewBox="0 0 16 16"><metadata id="metadata7"/><g style="display:inline" id="g4152" transform="matrix(.5 0 0 .5 0 0)"><path id="path6" d="M11.22 15.892c-4.266.925-5.88 4.762-5.76 7.676.128 3.144-3.25 5.634-5.372 6.065 2.885 2.29 7.106 2.633 10.92 1.858 5.582-1.133 9.383-5.486 8.367-10.49-.764-3.76-3.974-6.015-8.156-5.109z" style="fill:#373737;fill-opacity:1"/><path style="display:inline;fill:#373737;fill-opacity:1;fill-rule:evenodd;stroke:none;stroke-width:1px;stroke-linecap:butt;stroke-linejoin:miter;stroke-opacity:1" id="path4174-1" d="M15.42 13.92c2.334.387 4.895 2.566 5.385 4.578.278.943 2.615-1.019 2.26-2.369-1.26-2.782-3.97-4.68-6.408-4.596-.881.014-1.95 2.341-1.237 2.387z"/><path style="display:inline;fill:#373737;fill-opacity:1;fill-rule:evenodd;stroke:none;stroke-width:1px;stroke-linecap:butt;stroke-linejoin:miter;stroke-opacity:1" id="path4174-3-9" d="M18.647 9.742c2.334.387 5.222 2.765 5.712 4.777.278.943 8.63-7.847 8.275-9.197 1.081-8.218-.421-5.34-7.91-5.745-2.384.147-6.79 10.12-6.077 10.165z"/></g></svg>