<svg xmlns="http://www.w3.org/2000/svg" id="svg2" width="32" height="32" version="1.1" viewBox="0 0 32 32"><metadata id="metadata7"/><g style="display:inline" id="g4154"><path style="display:inline;fill:none;fill-rule:evenodd;stroke:#d2d2d2;stroke-width:2.03568077;stroke-linecap:butt;stroke-linejoin:miter;stroke-miterlimit:4;stroke-dasharray:none;stroke-opacity:1" id="path4149-2" d="M30.11 2.15s3.036 11.404-7.177 21.482c-7.774 7.672-21.23 5.83-21.23 5.83"/><path style="font-style:normal;font-variant:normal;font-weight:700;font-stretch:normal;font-size:76.15584564px;line-height:50%;font-family:JasmineUPC;-inkscape-font-specification:'JasmineUPC, Bold';text-align:start;letter-spacing:0;word-spacing:0;writing-mode:lr-tb;text-anchor:start;display:inline;opacity:1;fill:#d2d2d2;fill-opacity:1;stroke:none;stroke-width:1px;stroke-linecap:butt;stroke-linejoin:miter;stroke-opacity:1" id="path4293" d="M6.984 11.95c-.511-.375-.885-.594-1.137-.634-.252-.04-.543.159-.873.594-.606.8-.93 1.482-.973 2.044-.045.551-.004 1.177.12 1.876.125.689.08 1.174-.134 1.455-.46.609-.992.685-1.594.23a2.748 2.748 0 0 1-.655-.693C.721 15.729.213 15.037.213 14.744c-.001-.212.217-.606.653-1.183l9.328-12.316c.437-.577.755-.89.954-.94.465-.122 1.272.176 2.421.895.295.103.574.254.837.452.602.456.675.985.219 1.588-.214.281-.67.46-1.372.533-.707.069-1.322.203-1.845.401-.525.187-1.09.681-1.697 1.482-.325.429-.437.763-.335 1 .107.233.407.548.919.924l8.916 6.542c.686.504 1.22.698 1.624.55l.365-.162c.507-.19.895-.184 1.164.02.55.417.537 1.007-.04 1.769l-3.456 4.563c-.597.788-1.17.973-1.721.556-.199-.15-.308-.298-.328-.445-.027-.151-.027-.378 0-.68l.05-.385c.033-.429-.282-.91-.97-1.415z"/></g></svg>