<svg xmlns="http://www.w3.org/2000/svg" id="Layer_2_1_" width="16" height="16" x="0" y="0" version="1.1" viewBox="0 0 16 16" xml:space="preserve"><metadata id="metadata15"/><style id="style2" type="text/css">.st1{fill:#cacaca}</style><path id="path4" d="M8.338 4.35a.5.5 0 0 0-.342.146l-7 7a.5.5 0 0 0-.142.299l-.35 3.15a.5.5 0 0 0 .55.551l3.2-.35a.5.5 0 0 0 .299-.142l7-7a.5.5 0 0 0-.002-.711L8.7 4.494a.5.5 0 0 0-.363-.144zm.016 1.205 2.136 2.097-6.52 6.52-2.406.264.264-2.356z" style="color:#000;font-style:normal;font-variant:normal;font-weight:400;font-stretch:normal;font-size:medium;line-height:normal;font-family:sans-serif;font-variant-ligatures:normal;font-variant-position:normal;font-variant-caps:normal;font-variant-numeric:normal;font-variant-alternates:normal;font-feature-settings:normal;text-indent:0;text-align:start;text-decoration:none;text-decoration-line:none;text-decoration-style:solid;text-decoration-color:#000;letter-spacing:normal;word-spacing:normal;text-transform:none;writing-mode:lr-tb;direction:ltr;text-orientation:mixed;dominant-baseline:auto;baseline-shift:baseline;text-anchor:start;white-space:normal;shape-padding:0;clip-rule:nonzero;display:inline;overflow:visible;visibility:visible;opacity:1;isolation:auto;mix-blend-mode:normal;color-interpolation:sRGB;color-interpolation-filters:linearRGB;solid-color:#000;solid-opacity:1;vector-effect:none;fill:#d2d2d2;fill-opacity:1;fill-rule:nonzero;stroke:none;stroke-width:.99999148;stroke-linecap:butt;stroke-linejoin:round;stroke-miterlimit:4;stroke-dasharray:none;stroke-dashoffset:0;stroke-opacity:1;color-rendering:auto;image-rendering:auto;shape-rendering:auto;text-rendering:auto;enable-background:accumulate"/><rect style="fill:#d2d2d2;stroke-width:.49999094;fill-opacity:1" id="rect6" width="2" height="9" x="1.98" y="6.836" class="st1" transform="rotate(-45)"/><path style="fill:#d2d2d2;stroke-width:.49999574;fill-opacity:1" id="path8" d="M12.6 7.65 8.35 3.4 10.8.95c1.15-1.15 3.05-1.15 4.25 0C16.2 2.1 16.2 4 15.05 5.2z" class="st1"/></svg>