<svg xmlns="http://www.w3.org/2000/svg" id="svg2" width="16" height="16" version="1.1" viewBox="0 0 16 16"><metadata id="metadata7"/><g id="g4519" transform="scale(.5)" style="display:inline"><path id="path4541" d="M14 6v4h2V6z" transform="scale(2)" style="opacity:1;fill:#d2d2d2;fill-opacity:1;stroke:none;stroke-width:2;stroke-linecap:square;stroke-linejoin:miter;stroke-miterlimit:4;stroke-dasharray:none;stroke-dashoffset:0;stroke-opacity:1"/><path id="path4543" d="M0 6v4h2V6z" transform="scale(2)" style="opacity:1;fill:#d2d2d2;fill-opacity:1;stroke:none;stroke-width:2;stroke-linecap:square;stroke-linejoin:miter;stroke-miterlimit:4;stroke-dasharray:none;stroke-dashoffset:0;stroke-opacity:1"/><path id="path4555" d="M6 0v2h4V0H8z" transform="scale(2)" style="opacity:1;fill:#d2d2d2;fill-opacity:1;stroke:none;stroke-width:2;stroke-linecap:square;stroke-linejoin:miter;stroke-miterlimit:4;stroke-dasharray:none;stroke-dashoffset:0;stroke-opacity:1"/><path id="path4541-4" d="M12 0v2h2v2h2V0h-2z" transform="scale(2)" style="display:inline;opacity:1;fill:#d2d2d2;fill-opacity:1;stroke:none;stroke-width:2;stroke-linecap:square;stroke-linejoin:miter;stroke-miterlimit:4;stroke-dasharray:none;stroke-dashoffset:0;stroke-opacity:1"/><path id="path4541-4-9" d="M0 12v4h4v-2H2v-2z" transform="scale(2)" style="display:inline;opacity:1;fill:#d2d2d2;fill-opacity:1;stroke:none;stroke-width:2;stroke-linecap:square;stroke-linejoin:miter;stroke-miterlimit:4;stroke-dasharray:none;stroke-dashoffset:0;stroke-opacity:1"/><path id="path4541-4-44" d="M6 14v2h4v-2H8z" transform="scale(2)" style="display:inline;opacity:1;fill:#d2d2d2;fill-opacity:1;stroke:none;stroke-width:2;stroke-linecap:square;stroke-linejoin:miter;stroke-miterlimit:4;stroke-dasharray:none;stroke-dashoffset:0;stroke-opacity:1"/><path id="path4541-3" d="m26 20-2.828 2.828-2.829 2.829 2.829 2.828L26 25.657l2.828-2.829z" style="display:inline;opacity:1;fill:#d2d2d2;fill-opacity:1;stroke:none;stroke-width:4;stroke-linecap:square;stroke-linejoin:miter;stroke-miterlimit:4;stroke-dasharray:none;stroke-dashoffset:0;stroke-opacity:1"/><path id="path4541-3-6" d="M8.828 3.515 6 6.343 3.172 9.172 6 12l2.828-2.828 2.829-2.829z" style="display:inline;opacity:1;fill:#d2d2d2;fill-opacity:1;stroke:none;stroke-width:4;stroke-linecap:square;stroke-linejoin:miter;stroke-miterlimit:4;stroke-dasharray:none;stroke-dashoffset:0;stroke-opacity:1"/></g></svg>