<svg xmlns="http://www.w3.org/2000/svg" id="svg2" width="32" height="32" version="1.1" viewBox="0 0 32 32"><metadata id="metadata7"/><g id="g4710" style="display:inline"><path id="rect4712" d="M4 4v2h2V4zm2 2v2H4v6h2v-2h2v-2h2V8h2V6h2V4H8v2zm8 0v2h-2v2h-2v2H8v2H6v2H4v6h2v-2h2v-2h2v-2h2v-2h2v-2h2v-2h2V8h2V6h2V4h-6v2zm8 0v2h-2v2h-2v2h-2v2h-2v2h-2v2h-2v2H8v2H6v2H4v4h4v-2h2v-2h2v-2h2v-2h2v-2h2v-2h2v-2h2v-2h2v-2h2V8h2V4h-4v2zm4 4v2h-2v2h-2v2h-2v2h-2v2h-2v2h-2v2h-2v2h-2v2h6v-2h2v-2h2v-2h2v-2h2v-2h2v-2h2v-6zm0 8v2h-2v2h-2v2h-2v2h-2v2h6v-2h2v-2h2v-6zm0 8v2h2v-2z" style="opacity:1;fill:#d2d2d2;fill-opacity:1;stroke:none;stroke-width:4;stroke-linecap:square;stroke-linejoin:miter;stroke-miterlimit:4;stroke-dasharray:none;stroke-dashoffset:0;stroke-opacity:1"/><path id="rect4619" d="M0 0v32h32V0zm2 2h28v28H2z" style="opacity:1;fill:#d2d2d2;fill-opacity:1;stroke:none;stroke-width:4;stroke-linecap:square;stroke-linejoin:miter;stroke-miterlimit:4;stroke-dasharray:none;stroke-dashoffset:0;stroke-opacity:1"/></g></svg>