<svg xmlns="http://www.w3.org/2000/svg" id="svg4183" width="22" height="22" version="1.1"><metadata id="metadata4188"/><g id="layer1" transform="translate(0 -1030.362)"><path style="fill:#da4453;fill-opacity:1;stroke:none" id="rect4085" d="M11 1033.362c4.432 0 8 3.568 8 8 0 1.442-.383 2.79-1.045 3.955l-.738-.738a6.985 6.985 0 0 0 .783-3.217c0-3.878-3.122-7-7-7a6.985 6.985 0 0 0-3.217.783l-.738-.738a7.982 7.982 0 0 1 3.955-1.045zm-6.955 4.045.738.738a6.985 6.985 0 0 0-.783 3.217c0 3.878 3.122 7 7 7a6.985 6.985 0 0 0 3.217-.783l.738.738a7.982 7.982 0 0 1-3.955 1.045c-4.432 0-8-3.568-8-8 0-1.442.383-2.79 1.045-3.955z"/><rect style="fill:#da4453;fill-opacity:1;stroke:none" id="rect4128" width="7" height="2" x="7.5" y="1040.362" ry="0"/></g></svg>