<svg xmlns="http://www.w3.org/2000/svg" id="svg3613" width="22" height="22" version="1.1"><metadata id="metadata3618"/><g id="layer1" transform="translate(0 -1030.362)"><path style="fill:#d2d2d2;fill-opacity:1;stroke:none" id="rect4139" d="M11.5 3a2.492 2.492 0 0 0-2.45 2H3v1h6.05c.231 1.144 1.236 2 2.45 2a2.492 2.492 0 0 0 2.45-2H19V5h-5.05a2.492 2.492 0 0 0-2.45-2zm-6 11A2.495 2.495 0 0 0 3 16.5C3 17.885 4.115 19 5.5 19a2.492 2.492 0 0 0 2.45-2H19v-1H7.95a2.492 2.492 0 0 0-2.45-2zm0 1c.831 0 1.5.669 1.5 1.5S6.331 18 5.5 18 4 17.331 4 16.5 4.669 15 5.5 15z" transform="translate(0 1030.362)"/></g></svg>