<svg xmlns="http://www.w3.org/2000/svg" id="svg18109" width="22" height="22" version="1.1"><metadata id="metadata18114"/><g id="layer1" transform="translate(0 -1030.362)"><path style="color:#000;text-decoration:none;text-decoration-line:none;text-decoration-style:solid;text-decoration-color:#000;clip-rule:nonzero;display:inline;overflow:visible;visibility:visible;opacity:1;isolation:auto;mix-blend-mode:normal;color-interpolation:sRGB;color-interpolation-filters:linearRGB;solid-color:#000;solid-opacity:1;fill:#d2d2d2;fill-opacity:1;fill-rule:nonzero;stroke:none;stroke-width:1;stroke-linecap:butt;stroke-linejoin:miter;stroke-miterlimit:4;stroke-dasharray:none;stroke-dashoffset:0;stroke-opacity:1;color-rendering:auto;image-rendering:auto;shape-rendering:auto;text-rendering:auto;enable-background:accumulate" id="rect4144" d="M12.4 3 9.107 6.293 8.9 6.5l.207.207L12.4 10l.707-.707L10.814 7H14V6h-3.186l2.293-2.293L12.4 3zm3.1 3a.499.499 0 1 0 0 1 .499.499 0 1 0 0-1zM6.95 8 2 12.95 8.05 19 13 14.05 6.95 8zM18.5 8a.499.499 0 1 0 0 1 .499.499 0 1 0 0-1zM6.95 9.414l4.777 4.777-3.536 3.536-4.777-4.778L6.95 9.414zM19.5 11a.499.499 0 1 0 0 1 .499.499 0 1 0 0-1zm-1 3a.499.499 0 1 0 0 1 .499.499 0 1 0 0-1zm-3 2a.499.499 0 1 0 0 1 .499.499 0 1 0 0-1z" transform="translate(0 1030.362)"/></g></svg>