<svg xmlns="http://www.w3.org/2000/svg" xmlns:svg="http://www.w3.org/2000/svg" id="svg3071" width="16" height="16" version="1.1"><metadata id="metadata3077"/><path id="path821" d="M 7.9999989,0 A 7.9999996,7.9999996 0 0 0 -1.0606042e-6,8 7.9999996,7.9999996 0 0 0 7.9999989,16 7.9999996,7.9999996 0 0 0 15.999999,8 7.9999996,7.9999996 0 0 0 7.9999989,0 Z m 0,1 A 6.9999998,6.9999998 0 0 1 14.999999,8 6.9999998,6.9999998 0 0 1 7.9999989,15 6.9999998,6.9999998 0 0 1 0.99999894,8 6.9999998,6.9999998 0 0 1 7.9999989,1 Z" style="opacity:1;vector-effect:none;fill:#373737;fill-opacity:1;stroke:none;stroke-width:6;stroke-linecap:round;stroke-linejoin:bevel;stroke-miterlimit:4;stroke-dasharray:none;stroke-dashoffset:0;stroke-opacity:1"/><path id="path841" d="M 7.9999977,3.9999988 A 3,3 0 0 0 4.9999994,6.9999971 H 5.999998 A 1.9999999,1.9999999 0 0 1 7.9999977,4.9999974 1.9999999,1.9999999 0 0 1 9.9999998,6.9999971 V 10.999999 H 10.999998 V 6.9999971 A 3,3 0 0 0 7.9999977,3.9999988 Z" style="opacity:1;vector-effect:none;fill:#373737;fill-opacity:1;stroke:none;stroke-width:6;stroke-linecap:round;stroke-linejoin:bevel;stroke-miterlimit:4;stroke-dasharray:none;stroke-dashoffset:0;stroke-opacity:1"/><rect id="rect851" width="8" height="4" x="4" y="7" style="opacity:1;vector-effect:none;fill:#373737;fill-opacity:1;stroke:none;stroke-width:6;stroke-linecap:round;stroke-linejoin:bevel;stroke-miterlimit:4;stroke-dasharray:none;stroke-dashoffset:0;stroke-opacity:1"/></svg>