<svg xmlns="http://www.w3.org/2000/svg" xmlns:svg="http://www.w3.org/2000/svg" id="svg3071" width="16" height="16" version="1.1"><metadata id="metadata3077"/><g style="fill:#000" id="g5357" transform="matrix(0.24227062,0,0,0.24227062,-197.44864,-48.979043)"><path id="path821" d="M 8,0 A 7.9999996,7.9999996 0 0 0 0,8 7.9999996,7.9999996 0 0 0 8,16 7.9999996,7.9999996 0 0 0 16,8 7.9999996,7.9999996 0 0 0 8,0 Z M 8,1 A 6.9999998,6.9999998 0 0 1 15,8 6.9999998,6.9999998 0 0 1 8,15 6.9999998,6.9999998 0 0 1 1,8 6.9999998,6.9999998 0 0 1 8,1 Z" transform="matrix(4.1276156,0,0,4.1276156,814.99209,202.16666)" style="opacity:1;vector-effect:none;fill:#373737;fill-opacity:1;stroke:none;stroke-width:6;stroke-linecap:round;stroke-linejoin:bevel;stroke-miterlimit:4;stroke-dasharray:none;stroke-dashoffset:0;stroke-opacity:1"/><path id="path841" d="M 8,3 A 3,3 0 0 0 5,6 h 1 a 1.9999999,1.9999999 0 0 1 2,-2 1.9999999,1.9999999 0 0 1 2,2 v 4 h 1 V 6 A 3,3 0 0 0 8,3 Z" transform="matrix(4.1276156,0,0,4.1276156,814.99209,202.16666)" style="opacity:1;vector-effect:none;fill:#373737;fill-opacity:1;stroke:none;stroke-width:6;stroke-linecap:round;stroke-linejoin:bevel;stroke-miterlimit:4;stroke-dasharray:none;stroke-dashoffset:0;stroke-opacity:1"/><rect id="rect851" width="33.021" height="16.51" x="831.503" y="235.188" style="opacity:1;vector-effect:none;fill:#373737;fill-opacity:1;stroke:none;stroke-width:24.76569366;stroke-linecap:round;stroke-linejoin:bevel;stroke-miterlimit:4;stroke-dasharray:none;stroke-dashoffset:0;stroke-opacity:1"/></g></svg>