<svg xmlns="http://www.w3.org/2000/svg" xmlns:svg="http://www.w3.org/2000/svg" id="svg3071" width="16" height="16" version="1.1"><metadata id="metadata3077"/><g id="g5357" transform="matrix(0.24227062,0,0,0.24227062,-197.44864,-48.979043)" style="fill:#000"><path style="opacity:1;vector-effect:none;fill:#d2d2d2;fill-opacity:1;stroke:none;stroke-width:6;stroke-linecap:round;stroke-linejoin:bevel;stroke-miterlimit:4;stroke-dasharray:none;stroke-dashoffset:0;stroke-opacity:1" id="path821" d="M 8,0 A 7.9999996,7.9999996 0 0 0 0,8 7.9999996,7.9999996 0 0 0 8,16 7.9999996,7.9999996 0 0 0 16,8 7.9999996,7.9999996 0 0 0 8,0 Z M 8,1 A 6.9999998,6.9999998 0 0 1 15,8 6.9999998,6.9999998 0 0 1 8,15 6.9999998,6.9999998 0 0 1 1,8 6.9999998,6.9999998 0 0 1 8,1 Z" transform="matrix(4.1276156,0,0,4.1276156,814.99209,202.16666)"/><path style="opacity:1;vector-effect:none;fill:#d2d2d2;fill-opacity:1;stroke:none;stroke-width:24.76569366;stroke-linecap:round;stroke-linejoin:bevel;stroke-miterlimit:4;stroke-dasharray:none;stroke-dashoffset:0;stroke-opacity:1" id="path841" d="m 848.01299,218.67712 a 12.382847,12.382847 0 0 0 -12.38284,12.38284 h 4.12761 a 8.2552308,8.2552308 0 0 1 8.25523,-8.25523 8.2552308,8.2552308 0 0 1 8.25524,8.25523 v 16.51047 h 4.12761 v -16.51047 a 12.382847,12.382847 0 0 0 -12.38285,-12.38284 z"/><rect style="opacity:1;vector-effect:none;fill:#d2d2d2;fill-opacity:1;stroke:none;stroke-width:24.76569366;stroke-linecap:round;stroke-linejoin:bevel;stroke-miterlimit:4;stroke-dasharray:none;stroke-dashoffset:0;stroke-opacity:1" id="rect851" width="33.021" height="16.51" x="831.503" y="231.06"/></g></svg>