<svg xmlns="http://www.w3.org/2000/svg" id="svg2" width="12" height="12" version="1.1" viewBox="0 0 12 12"><metadata id="metadata7"/><g id="layer1" transform="translate(0 -1040.362)"><path style="color:#000;clip-rule:nonzero;display:inline;overflow:visible;visibility:visible;opacity:1;isolation:auto;mix-blend-mode:normal;color-interpolation:sRGB;color-interpolation-filters:linearRGB;solid-color:#000;solid-opacity:1;fill:#d2d2d2;fill-opacity:1;fill-rule:nonzero;stroke:none;stroke-width:1;stroke-linecap:butt;stroke-linejoin:miter;stroke-miterlimit:4;stroke-dasharray:none;stroke-dashoffset:0;stroke-opacity:1;marker:none;color-rendering:auto;image-rendering:auto;shape-rendering:auto;text-rendering:auto;enable-background:accumulate" id="path4270" d="M6.302 1041.372a5 5 0 0 0-3.054.824l.722.723a4 4 0 0 1 2.065-.553l.267-.994zm1.93.521-.265.993a4 4 0 0 1 1.514 1.51l.987-.266a5 5 0 0 0-2.235-2.237zm-6.397 1.715a5 5 0 0 0-.665 1.46 5 5 0 0 0-.156 1.596l.987-.265a4 4 0 0 1 .135-1.072 4 4 0 0 1 .423-.995l-.724-.724zm9.151 2.452-.987.266a4 4 0 0 1-.135 1.072 4 4 0 0 1-.423.994l.724.724a5 5 0 0 0 .665-1.46 5 5 0 0 0 .156-1.596zm-8.467 2.269-.987.265a5 5 0 0 0 2.235 2.237l.266-.992a4 4 0 0 1-1.514-1.51zm5.51 1.477a4 4 0 0 1-2.064.552l-.267.995a5 5 0 0 0 3.054-.824l-.722-.723z"/></g></svg>