<svg xmlns="http://www.w3.org/2000/svg" xmlns:svg="http://www.w3.org/2000/svg" xmlns:xlink="http://www.w3.org/1999/xlink" id="svg2985" width="1024" height="1024" enable-background="new" version="1.1"><title id="title462">Krita icon - 2021</title><defs id="defs2987"><linearGradient id="linearGradient1373"><stop id="stop1369" offset="0" style="stop-color:#343434;stop-opacity:1"/><stop id="stop1371" offset="1" style="stop-color:#4d4d4d;stop-opacity:1"/></linearGradient><linearGradient id="linearGradient4663-8-4"><stop style="stop-color:#5596ea;stop-opacity:1" id="stop4665-6-3" offset="0"/><stop style="stop-color:#5596ea;stop-opacity:0" id="stop4667-8-0" offset="1"/></linearGradient><linearGradient id="linearGradient1403" x1="1142.588" x2="1280.895" y1="62.713" y2="200.874" gradientTransform="rotate(-5.8887665,1223.2651,99.834013)" gradientUnits="userSpaceOnUse" xlink:href="#linearGradient1373"/><linearGradient id="linearGradient1405" x1="1327.594" x2="1324.91" y1="230.862" y2="89.862" gradientTransform="matrix(0.0111212,0.99993816,0.99993816,-0.0111212,1077.8896,-1093.5223)" gradientUnits="userSpaceOnUse" xlink:href="#linearGradient4663-8-4"/><clipPath id="clipPath839" clipPathUnits="userSpaceOnUse"><circle style="opacity:1;vector-effect:none;fill:#000;fill-opacity:.4745098;stroke:none;stroke-width:4;stroke-linecap:square;stroke-linejoin:round;stroke-miterlimit:4;stroke-dasharray:none;stroke-dashoffset:3.20000005;stroke-opacity:1" id="circle841" cx="532" cy="538" r="400"/></clipPath><clipPath id="clipPath889" clipPathUnits="userSpaceOnUse"><circle id="circle891" cx="512" cy="512" r="400" style="opacity:1;vector-effect:none;fill:#3651e7;fill-opacity:1;stroke:none;stroke-width:4;stroke-linecap:square;stroke-linejoin:round;stroke-miterlimit:4;stroke-dasharray:none;stroke-dashoffset:3.20000005;stroke-opacity:1"/></clipPath><linearGradient id="linearGradient1351" x1="112" x2="711.864" y1="512" y2="512" gradientTransform="translate(-1211.405,-699.40501)" gradientUnits="userSpaceOnUse" xlink:href="#linearGradient1292"/><linearGradient id="linearGradient1292"><stop style="stop-color:#ff0;stop-opacity:1" id="stop1288" offset="0"/><stop style="stop-color:#ff0;stop-opacity:0" id="stop1290" offset="1"/></linearGradient><linearGradient id="linearGradient1353" x1="112" x2="711.864" y1="512" y2="512" gradientTransform="translate(-324.59499,187.40501)" gradientUnits="userSpaceOnUse" xlink:href="#linearGradient1262"/><linearGradient id="linearGradient1262"><stop style="stop-color:#0ff;stop-opacity:1" id="stop1258" offset="0"/><stop style="stop-color:#0ff;stop-opacity:0" id="stop1260" offset="1"/></linearGradient><linearGradient id="linearGradient1355" x1="112" x2="711.864" y1="512" y2="512" gradientTransform="translate(0,-1024)" gradientUnits="userSpaceOnUse" xlink:href="#linearGradient1228"/><linearGradient id="linearGradient1228"><stop id="stop1224" offset="0" style="stop-color:#f0f;stop-opacity:1"/><stop id="stop1226" offset="1" style="stop-color:#f0f;stop-opacity:0"/></linearGradient></defs><metadata id="metadata2990"/><path style="fill:#fff;stroke:none;stroke-width:1px;stroke-linecap:butt;stroke-linejoin:miter;stroke-opacity:1;fill-opacity:1" id="path843" d="M 550,294 730,124 900,294 730,464 Z"/><path id="rect900-27-2" d="m 729.40625,81.31932 c -6.62689,0 -13.25417,2.53932 -18.33204,7.61719 L 524.9746,275.03612 c -10.15571,10.15572 -10.15571,26.50833 0,36.66406 L 711.92773,498.6533 c 10.15572,10.15573 26.50834,10.15573 36.66406,0 L 934.6914,312.55369 c 10.15573,-10.15572 10.15572,-26.50834 0,-36.66406 L 747.73828,88.93651 c -5.07787,-5.07787 -11.70515,-7.61719 -18.33203,-7.61719 z m 0.42578,87.47656 c 13.85,0 25,11.15 25,25 v 75 h 75 c 13.85,0 25,11.15 25,25 0,13.85 -11.15,25 -25,25 h -75 v 75 c 0,13.85 -11.15,25 -25,25 -13.85,0 -25,-11.15 -25,-25 v -75 h -75 c -13.85,0 -25,-11.15 -25,-25 0,-13.85 11.15,-25 25,-25 h 75 v -75 c 0,-13.85 11.15,-25 25,-25 z" style="opacity:1;fill:#3b3b3b;fill-opacity:1;fill-rule:nonzero;stroke:none;stroke-width:2.02323008;stroke-opacity:1;paint-order:markers fill stroke"/></svg>