<svg xmlns="http://www.w3.org/2000/svg" xmlns:svg="http://www.w3.org/2000/svg" id="svg6" version="1.1" viewBox="0 0 22 22"><defs id="defs3051"><style id="current-color-scheme" type="text/css">.ColorScheme-Text{color:#232629}</style></defs><path style="fill:#d2d2d2;fill-opacity:1;stroke:none" id="path4" d="M 15.056641,3 19,9.828125 V 10 H 17.943359 L 16.789062,8 h -4.578124 l -1.154297,2 H 10 V 9.828125 L 13.943359,3 H 14 Z M 7,3 V 16 H 6 V 3 Z M 4,3 V 16 H 3 V 3 Z M 14.5,4.0371094 12.789063,7 h 3.421874 z M 19,11 v 5 h -1 v -5 z m -3,0 v 5 h -1 v -5 z m -3,0 v 5 h -1 v -5 z m -3,0 v 5 H 9 v -5 z m 9,6 -2,2 -2,-2 z m -6,0 -2,2 -2,-2 z M 7,17 5,19 3,17 Z" class="ColorScheme-Text"/></svg>