<svg xmlns="http://www.w3.org/2000/svg" xmlns:svg="http://www.w3.org/2000/svg" xmlns:xlink="http://www.w3.org/1999/xlink" id="svg5453" width="32" height="32" version="1.1"><defs id="defs5455"><linearGradient id="linearGradient4306" x1="32" x2="32" y1="61" y2="3" gradientTransform="matrix(0.49999977,0,0,0.48275841,384.57144,516.34974)" gradientUnits="userSpaceOnUse" xlink:href="#linearGradient4300"/><linearGradient id="linearGradient4357" x1="47" x2="47" y1="61" y2="47" gradientTransform="matrix(0.48275841,0,0,0.48275841,385.26109,516.10836)" gradientUnits="userSpaceOnUse" xlink:href="#linearGradient4351-3"/><linearGradient id="linearGradient4427" x1="54" x2="39.5" y1="31" y2="16.5" gradientTransform="matrix(0.48275841,0,0,-0.48275841,378.50247,553.76351)" gradientUnits="userSpaceOnUse" xlink:href="#linearGradient4410"/><linearGradient id="linearGradient4410"><stop style="stop-color:#383e51;stop-opacity:1" id="stop4412" offset="0"/><stop style="stop-color:#655c6f;stop-opacity:0" id="stop4414" offset="1"/></linearGradient><linearGradient id="linearGradient4300"><stop id="stop4302" offset="0" style="stop-color:#e00a5e;stop-opacity:1"/><stop id="stop4304" offset="1" style="stop-color:#f62870;stop-opacity:1"/></linearGradient><linearGradient id="linearGradient4351-3"><stop id="stop4353-5" offset="0" style="stop-color:#f78fb9;stop-opacity:1"/><stop id="stop4355-6" offset="1" style="stop-color:#f9c1d6;stop-opacity:1"/></linearGradient></defs><metadata id="metadata5458"/><g id="layer1" transform="translate(-384.57143,-515.798)"><path style="fill:url(#linearGradient4306);fill-opacity:1;stroke:none" id="rect3500" d="M 389.57144,517.79801 V 545.798 h 14.99999 l 7.00003,-7 -3e-5,-14.24137 v -6.75862 h -7 z"/><rect style="opacity:1;fill:#2e3132;fill-opacity:.29411765;stroke:none" id="rect4169" width="15" height="1" x="389.571" y="544.798"/><rect style="opacity:1;fill:#fff;fill-opacity:.41176471;stroke:none" id="rect4236" width="22" height="1" x="389.571" y="517.798"/><path style="fill:url(#linearGradient4357);fill-opacity:1;fill-rule:evenodd;stroke:none;stroke-width:1px;stroke-linecap:butt;stroke-linejoin:miter;stroke-opacity:1" id="path4314" d="m 411.57144,538.798 -7.00001,7 v -7 z"/><path id="path4320" d="m 397.57143,545.79797 7,-6.99997 v 7 z" style="opacity:.2;fill:url(#linearGradient4427);fill-opacity:1;fill-rule:evenodd;stroke:none;stroke-width:1px;stroke-linecap:butt;stroke-linejoin:miter;stroke-opacity:1"/><rect style="fill:#fff;fill-opacity:1;stroke:none" id="rect4035" width="0" height="11" x="375.892" y="526.798"/><rect style="fill:#fff;fill-opacity:1;stroke:none" id="rect4035-4" width="0" height="11" x="375.571" y="525.798"/><rect style="fill:#fbd2bf;fill-opacity:1;stroke:none" id="rect4035-3" width="0" height="11.114" x="374.036" y="525.684"/><rect style="fill:#fbd2bf;fill-opacity:1;stroke:none" id="rect4035-1" width="0" height="11" x="375.571" y="525.798"/><rect style="fill:#fbfbfb;fill-opacity:1;stroke:none" id="rect4035-5" width="0" height="11" x="375.571" y="525.798"/><path style="opacity:1;vector-effect:none;fill:#f9c1d6;fill-opacity:1;stroke:none;stroke-width:1;stroke-linecap:square;stroke-linejoin:round;stroke-miterlimit:4;stroke-dasharray:none;stroke-dashoffset:3.20000005;stroke-opacity:1" id="rect854" d="M 7,5 V 22 H 25 V 5 Z M 8,6 H 24 V 21 H 8 Z" transform="translate(384.57143,515.798)"/><g style="fill:#f9c1d6;fill-opacity:1" id="layer1-9" transform="matrix(0.66666696,0,0,0.66666696,398.2381,-164.44374)"><rect style="fill:#f9c1d6;fill-opacity:1;stroke:none" id="rect4035-2" width="0" height="11" x="-17" y="1039.362"/><path id="path88" d="m 13.634953,1038.3678 a 1.500133,6.7506007 44.989453 0 0 -5.5835433,3.8242 1.500133,6.7506007 44.989453 0 0 -2.657025,3.0857 c 0.8069772,0.2571 1.4359595,0.8862 1.6929526,1.6935 a 1.500133,6.7506007 44.989453 0 0 3.0847227,-2.6579 1.500133,6.7506007 44.989453 0 0 3.711626,-5.8345 1.500133,6.7506007 44.989453 0 0 -0.249013,-0.1114 m -8.6347572,7.9939 C 2,1047.1655 4.249937,1049.0649 2,1050.3622 c 2.9999158,0 4.4998734,-1.5014 4.4998734,-2.5026 0,-0.4991 0.051,-1.4173 -1.4999576,-1.5003" style="fill:#f9c1d6;fill-opacity:1"/></g><rect id="rect841" width="1" height="1" x="399.571" y="521.798" style="opacity:1;vector-effect:none;fill:#f9c1d6;fill-opacity:1;stroke:none;stroke-width:2;stroke-linecap:butt;stroke-linejoin:bevel;stroke-miterlimit:4;stroke-dasharray:none;stroke-dashoffset:3.20000005;stroke-opacity:1"/><rect id="rect843" width="1" height="1" x="400.571" y="522.798" style="opacity:1;vector-effect:none;fill:#f9c1d6;fill-opacity:1;stroke:none;stroke-width:2;stroke-linecap:butt;stroke-linejoin:bevel;stroke-miterlimit:4;stroke-dasharray:none;stroke-dashoffset:3.20000005;stroke-opacity:1"/><rect id="rect845" width="1" height="1" x="399.571" y="523.798" style="opacity:1;vector-effect:none;fill:#f9c1d6;fill-opacity:1;stroke:none;stroke-width:2;stroke-linecap:butt;stroke-linejoin:bevel;stroke-miterlimit:4;stroke-dasharray:none;stroke-dashoffset:3.20000005;stroke-opacity:1"/><rect id="rect847" width="1" height="1" x="400.571" y="524.798" style="opacity:1;vector-effect:none;fill:#f9c1d6;fill-opacity:1;stroke:none;stroke-width:2;stroke-linecap:butt;stroke-linejoin:bevel;stroke-miterlimit:4;stroke-dasharray:none;stroke-dashoffset:3.20000005;stroke-opacity:1"/><rect id="rect849" width="1" height="1" x="399.571" y="525.798" style="opacity:1;vector-effect:none;fill:#f9c1d6;fill-opacity:1;stroke:none;stroke-width:2;stroke-linecap:butt;stroke-linejoin:bevel;stroke-miterlimit:4;stroke-dasharray:none;stroke-dashoffset:3.20000005;stroke-opacity:1"/><rect id="rect851" width="1" height="1" x="400.571" y="526.798" style="opacity:1;vector-effect:none;fill:#f9c1d6;fill-opacity:1;stroke:none;stroke-width:2;stroke-linecap:butt;stroke-linejoin:bevel;stroke-miterlimit:4;stroke-dasharray:none;stroke-dashoffset:3.20000005;stroke-opacity:1"/><rect id="rect853" width="1" height="1" x="399.571" y="527.798" style="opacity:1;vector-effect:none;fill:#f9c1d6;fill-opacity:1;stroke:none;stroke-width:2;stroke-linecap:butt;stroke-linejoin:bevel;stroke-miterlimit:4;stroke-dasharray:none;stroke-dashoffset:3.20000005;stroke-opacity:1"/></g></svg>