<svg xmlns="http://www.w3.org/2000/svg" xmlns:svg="http://www.w3.org/2000/svg" xmlns:xlink="http://www.w3.org/1999/xlink" id="svg2" width="64" height="64" version="1.1" viewBox="0 0 64 64"><metadata id="metadata84"/><defs id="defs4"><linearGradient id="linearGradient4351"><stop id="stop4353" offset="0" style="stop-color:#f78fb9;stop-opacity:1"/><stop id="stop4355" offset="1" style="stop-color:#f9c1d6;stop-opacity:1"/></linearGradient><linearGradient id="linearGradient4300"><stop id="stop4302" offset="0" style="stop-color:#e00a5e;stop-opacity:1"/><stop id="stop4304" offset="1" style="stop-color:#f62870;stop-opacity:1"/></linearGradient><linearGradient id="linearGradient4306" x1="32" x2="32" y1="61" y2="3" gradientUnits="userSpaceOnUse" xlink:href="#linearGradient4300"/><linearGradient id="linearGradient4427" x1="54" x2="40" y1="31" y2="17" gradientTransform="matrix(1,0,0,-1,-14,78)" gradientUnits="userSpaceOnUse" xlink:href="#linearGradient4410"/><linearGradient id="linearGradient4410"><stop id="stop4412" offset="0" style="stop-color:#383e51;stop-opacity:1"/><stop id="stop4414" offset="1" style="stop-color:#655c6f;stop-opacity:0"/></linearGradient><linearGradient id="linearGradient4357" x1="47" x2="47" y1="61" y2="47" gradientUnits="userSpaceOnUse" xlink:href="#linearGradient4351"/></defs><path id="rect3500" d="M 10 3 L 10 61 L 40 61 L 54 47 L 54 17 L 54 3 L 40 3 L 10 3 z" style="fill:url(#linearGradient4306);fill-opacity:1;stroke:none"/><rect id="rect4169" width="30" height="1" x="10" y="60" style="opacity:1;fill:#2e3132;fill-opacity:.29411765;stroke:none"/><rect id="rect4236" width="44" height="1" x="10" y="3" style="opacity:1;fill:#fff;fill-opacity:.40983605;stroke:none"/><path id="path4314" d="M 54,47 40,61 40,47 Z" style="fill:url(#linearGradient4357);fill-opacity:1;fill-rule:evenodd;stroke:none;stroke-width:1px;stroke-linecap:butt;stroke-linejoin:miter;stroke-opacity:1"/><path style="opacity:.2;fill:url(#linearGradient4427);fill-opacity:1;fill-rule:evenodd;stroke:none;stroke-width:1px;stroke-linecap:butt;stroke-linejoin:miter;stroke-opacity:1" id="path4320" d="M 26,61 40,47 40,61 Z"/><path style="opacity:1;vector-effect:none;fill:#f9c1d6;fill-opacity:1;stroke:none;stroke-width:2;stroke-linecap:square;stroke-linejoin:round;stroke-miterlimit:4;stroke-dasharray:none;stroke-dashoffset:3.20000005;stroke-opacity:1" id="rect854" d="M 14,8 V 42 H 50 V 8 Z m 2,2 H 48 V 40 H 16 Z"/><g style="fill:#f9c1d6;fill-opacity:1" id="layer1-9" transform="matrix(1.3333339,0,0,1.3333339,27.333332,-1362.4835)"><rect style="fill:#f9c1d6;fill-opacity:1;stroke:none" id="rect4035-2" width="0" height="11" x="-17" y="1039.362"/><path id="path88" d="m 13.634953,1038.3678 a 1.500133,6.7506007 44.989453 0 0 -5.5835433,3.8242 1.500133,6.7506007 44.989453 0 0 -2.657025,3.0857 c 0.8069772,0.2571 1.4359595,0.8862 1.6929526,1.6935 a 1.500133,6.7506007 44.989453 0 0 3.0847227,-2.6579 1.500133,6.7506007 44.989453 0 0 3.711626,-5.8345 1.500133,6.7506007 44.989453 0 0 -0.249013,-0.1114 m -8.6347572,7.9939 C 2,1047.1655 4.249937,1049.0649 2,1050.3622 c 2.9999158,0 4.4998734,-1.5014 4.4998734,-2.5026 0,-0.4991 0.051,-1.4173 -1.4999576,-1.5003" style="fill:#f9c1d6;fill-opacity:1"/></g><rect id="rect841" width="2" height="2" x="30" y="10" style="opacity:1;vector-effect:none;fill:#f9c1d6;fill-opacity:1;stroke:none;stroke-width:4;stroke-linecap:butt;stroke-linejoin:bevel;stroke-miterlimit:4;stroke-dasharray:none;stroke-dashoffset:3.20000005;stroke-opacity:1"/><rect id="rect843" width="2" height="2" x="32" y="12" style="opacity:1;vector-effect:none;fill:#f9c1d6;fill-opacity:1;stroke:none;stroke-width:4;stroke-linecap:butt;stroke-linejoin:bevel;stroke-miterlimit:4;stroke-dasharray:none;stroke-dashoffset:3.20000005;stroke-opacity:1"/><rect id="rect845" width="2" height="2" x="30" y="14" style="opacity:1;vector-effect:none;fill:#f9c1d6;fill-opacity:1;stroke:none;stroke-width:4;stroke-linecap:butt;stroke-linejoin:bevel;stroke-miterlimit:4;stroke-dasharray:none;stroke-dashoffset:3.20000005;stroke-opacity:1"/><rect id="rect847" width="2" height="2" x="32" y="16" style="opacity:1;vector-effect:none;fill:#f9c1d6;fill-opacity:1;stroke:none;stroke-width:4;stroke-linecap:butt;stroke-linejoin:bevel;stroke-miterlimit:4;stroke-dasharray:none;stroke-dashoffset:3.20000005;stroke-opacity:1"/><rect id="rect849" width="2" height="2" x="30" y="18" style="opacity:1;vector-effect:none;fill:#f9c1d6;fill-opacity:1;stroke:none;stroke-width:4;stroke-linecap:butt;stroke-linejoin:bevel;stroke-miterlimit:4;stroke-dasharray:none;stroke-dashoffset:3.20000005;stroke-opacity:1"/><rect id="rect851" width="2" height="2" x="32" y="20" style="opacity:1;vector-effect:none;fill:#f9c1d6;fill-opacity:1;stroke:none;stroke-width:4;stroke-linecap:butt;stroke-linejoin:bevel;stroke-miterlimit:4;stroke-dasharray:none;stroke-dashoffset:3.20000005;stroke-opacity:1"/><rect id="rect853" width="2" height="2" x="30" y="22" style="opacity:1;vector-effect:none;fill:#f9c1d6;fill-opacity:1;stroke:none;stroke-width:4;stroke-linecap:butt;stroke-linejoin:bevel;stroke-miterlimit:4;stroke-dasharray:none;stroke-dashoffset:3.20000005;stroke-opacity:1"/></svg>