<svg xmlns="http://www.w3.org/2000/svg" xmlns:xlink="http://www.w3.org/1999/xlink" width="310" height="260" version="2.0"><defs><path id="bubble" d="M60 0C90 0 120 30 120 60C120 90 90 120 60 120C30 120 0 90 0 60C0 30 30 0 60 0Z"/><path id="bubble2" d="M60 0C90 0 120 30 120 60C120 90 90 120 60 120C30 120 0 90 0 60C0 30 30 0 60 0Z" transform="translate(60, 0)"/><path id="bubble3" d="M60 0C90 0 120 30 120 60C120 90 90 120 60 120C30 120 0 90 0 60C0 30 30 0 60 0Z" transform="translate(0, 130)"/><path id="bubble4" d="M60 0C90 0 120 30 120 60C120 90 90 120 60 120C30 120 0 90 0 60C0 30 30 0 60 0Z" transform="translate(60, 130)"/></defs><g id="testRect"><use fill="#b0e0e6" stroke="sienna" transform="translate(5,5)" xlink:href="#bubble"/><use fill="#b0e0e6" stroke="sienna" transform="translate(5,5)" xlink:href="#bubble3"/><text id="test1" fill="sienna" font-family="DejaVu Sans" font-size="10" transform="translate(5,5)" style="shape-inside:url(#bubble) url(#bubble3);shape-subtract:url(#bubble2) url(#bubble4);text-align:center">The quick brown fox jumps over the lazy dog. Black sphinx of quartz hear my vow. Pa&apos;s wijze lynx overzag vroom het fikse aquaduct.</text><use fill="beige" stroke="#6495ed" transform="translate(65,5)" xlink:href="#bubble"/><use fill="beige" stroke="#6495ed" transform="translate(65,5)" xlink:href="#bubble3"/><text id="test1rtl" fill="#6495ed" font-family="DejaVu Sans" font-size="10" transform="translate(65,5)" style="shape-inside:url(#bubble) url(#bubble3);shape-subtract:url(#bubble2) url(#bubble4);direction:rtl;text-align:center">داستان SVG 1.1 SE<tspan fill="gray" style="font-weight:100;text-decoration:overline wavy"> طولا ني</tspan> است. اللغة العربية المعيارية الحديثة اللغة العربية المعيارية الحديثة abc</text><use fill="pink" stroke="#2f4f4f" transform="translate(125,5)" xlink:href="#bubble"/><use fill="pink" stroke="#2f4f4f" transform="translate(125,5)" xlink:href="#bubble3"/><text id="test1ttb" fill="#2f4f4f" font-family="Krita_Test_Unicode_Variation_A,DejaVu Sans" font-size="12" transform="translate(125,5)" style="shape-inside:url(#bubble) url(#bubble3);shape-subtract:url(#bubble2) url(#bubble4);writing-mode:vertical-rl;text-align:center">あああ芦芦芦芦あああ芦芦芦芦あああ芦芦芦ああああ芦芦芦ああああ芦芦芦ああ芦芦芦芦あああ芦芦芦芦あああ</text><use fill="#afeeee" stroke="brown" transform="translate(185,5)" xlink:href="#bubble"/><use fill="#afeeee" stroke="brown" transform="translate(185,5)" xlink:href="#bubble3"/><text id="test1ttblr" fill="brown" font-family="Krita_Test_Unicode_Variation_A,DejaVu Sans" font-size="12" transform="translate(185,5)" style="shape-inside:url(#bubble) url(#bubble3);shape-subtract:url(#bubble2) url(#bubble4);writing-mode:vertical-lr;text-align:center">あああ芦芦芦芦あああ芦芦芦芦あああ芦芦芦ああああ芦芦芦ああああ芦芦芦ああ芦芦芦芦あああ芦芦芦芦あああ</text></g></svg>