<svg xmlns="http://www.w3.org/2000/svg" id="svg4141" width="16" height="16" version="1.1" viewBox="0 0 16 16"><metadata id="metadata4146"/><path style="opacity:1;vector-effect:none;fill:#373737;fill-opacity:1;stroke:none;stroke-width:2;stroke-linecap:square;stroke-linejoin:miter;stroke-miterlimit:4;stroke-dasharray:none;stroke-dashoffset:0;stroke-opacity:1;marker:none" id="path834" d="M1.5 0A1.5 1.5 0 0 0 0 1.5 1.5 1.5 0 0 0 1.5 3 1.5 1.5 0 0 0 3 1.5 1.5 1.5 0 0 0 1.5 0zm13 0A1.5 1.5 0 0 0 13 1.5 1.5 1.5 0 0 0 14.5 3 1.5 1.5 0 0 0 16 1.5 1.5 1.5 0 0 0 14.5 0zm-13 13A1.5 1.5 0 0 0 0 14.5 1.5 1.5 0 0 0 1.5 16 1.5 1.5 0 0 0 3 14.5 1.5 1.5 0 0 0 1.5 13zm13 0a1.5 1.5 0 0 0-1.5 1.5 1.5 1.5 0 0 0 1.5 1.5 1.5 1.5 0 0 0 1.5-1.5 1.5 1.5 0 0 0-1.5-1.5z"/><path style="opacity:1;vector-effect:none;fill:#373737;fill-opacity:1;stroke:none;stroke-width:2;stroke-linecap:butt;stroke-linejoin:miter;stroke-miterlimit:4;stroke-dasharray:none;stroke-dashoffset:0;stroke-opacity:1" id="rect829" d="M4 1v1h2V1zm3 0v1h2V1zm3 0v1h2V1zM1 4v2h1V4zm13 0v2h1V4zM1 7v2h1V7zm13 0v2h1V7zM1 10v2h1v-2zm13 0v2h1v-2zM4 14v1h2v-1zm3 0v1h2v-1zm3 0v1h2v-1z"/></svg>