<svg xmlns="http://www.w3.org/2000/svg" id="svg4141" width="16" height="16" version="1.1" viewBox="0 0 16 16"><metadata id="metadata4146"/><g id="layer1" transform="translate(0 -1036.362)"><circle style="color:#000;clip-rule:nonzero;display:inline;overflow:visible;visibility:visible;opacity:1;isolation:auto;mix-blend-mode:normal;color-interpolation:sRGB;color-interpolation-filters:linearRGB;solid-color:#000;solid-opacity:1;fill:#373737;fill-opacity:1;fill-rule:evenodd;stroke:none;stroke-width:2;stroke-linecap:square;stroke-linejoin:miter;stroke-miterlimit:4;stroke-dasharray:none;stroke-dashoffset:0;stroke-opacity:1;marker:none;color-rendering:auto;image-rendering:auto;shape-rendering:auto;text-rendering:auto;enable-background:accumulate" id="path4146" cx="-8" cy="1045.366" r="2" transform="scale(-1 1)"/><path style="fill:#373737;fill-opacity:1;fill-rule:evenodd;stroke:none;stroke-width:1px;stroke-linecap:butt;stroke-linejoin:miter;stroke-opacity:1" id="path4148" d="M8 1036.366v2a7 7 0 0 1 7 7 7 7 0 0 1-7 7 7 7 0 0 1-4.107-1.34l1.107-1.66.002-.01A5 5 0 0 0 8 1050.362a5 5 0 0 0 5-5 5 5 0 0 0-5-5v2l-5-3 5-3z"/></g></svg>