<svg xmlns="http://www.w3.org/2000/svg" id="svg4141" width="16" height="16" version="1.1" viewBox="0 0 16 16"><metadata id="metadata4146"/><g id="layer1" transform="translate(0 -1036.362)"><path style="fill:#d2d2d2;fill-opacity:1;fill-rule:evenodd;stroke:none;stroke-width:1px;stroke-linecap:butt;stroke-linejoin:miter;stroke-opacity:1" id="path4145" d="m5 1045.362-3 3-2-2v6h6l-2-2 3-3-2-2z"/><path style="fill:#d2d2d2;fill-opacity:1;fill-rule:evenodd;stroke:none;stroke-width:1px;stroke-linecap:butt;stroke-linejoin:miter;stroke-opacity:1" id="path4145-3" d="m11 1045.362 3 3 2-2v6h-6l2-2-3-3 2-2z"/><path style="fill:#d2d2d2;fill-opacity:1;fill-rule:evenodd;stroke:none;stroke-width:1px;stroke-linecap:butt;stroke-linejoin:miter;stroke-opacity:1" id="path4145-6" d="m5 1043.362-3-3-2 2v-6h6l-2 2 3 3-2 2z"/><path style="fill:#d2d2d2;fill-opacity:1;fill-rule:evenodd;stroke:none;stroke-width:1px;stroke-linecap:butt;stroke-linejoin:miter;stroke-opacity:1" id="path4145-3-7" d="m11 1043.362 3-3 2 2v-6h-6l2 2-3 3 2 2z"/></g></svg>