<svg xmlns="http://www.w3.org/2000/svg" width="32" height="32" version="1.1" viewBox="0 0 32 32" xml:space="preserve"><g stroke-linejoin="round"><path fill="#fff" stroke-width="3.464" d="m13 4.9999v3h-4.9999v-3zm-7.9999-1.2e-6v3h-4.9999v-3zm0 3h3v4.9999h-3zm0-7.9999h3v4.9999h-3z" style="paint-order:stroke fill markers"/><path stroke-width="2" d="m13 5.9999v0.99998h-4.9999v-0.99998zm-7.9999-1.1e-6v0.99998h-4.9999v-0.99998zm0.99998 2h0.99998v4.9999h-0.99998zm0-7.9999h0.99998v4.9999h-0.99998z" style="paint-order:stroke fill markers"/></g><path fill="#fefefe" stroke-width="3.78" d="m15 15v17h17v-17zm0.99654 0.99654h15v15h-15z" color="#000" style="-inkscape-stroke:none;paint-order:markers fill stroke"/><path stroke-width="3.78" d="m15.996 15.996v15h15v-15zm1.0039 1.0039h12.999v12.999h-12.999z" color="#000" style="-inkscape-stroke:none;paint-order:markers fill stroke"/><metadata/></svg>