<svg xmlns="http://www.w3.org/2000/svg" xmlns:svg="http://www.w3.org/2000/svg" xmlns:xlink="http://www.w3.org/1999/xlink" id="svg2985" width="1024" height="1024" enable-background="new" version="1.1"><title id="title462">Krita icon - 2021</title><defs id="defs2987"><linearGradient id="linearGradient1292"><stop style="stop-color:#ff0;stop-opacity:1" id="stop1288" offset="0"/><stop style="stop-color:#ff0;stop-opacity:0" id="stop1290" offset="1"/></linearGradient><linearGradient id="linearGradient1262"><stop style="stop-color:#0ff;stop-opacity:1" id="stop1258" offset="0"/><stop style="stop-color:#0ff;stop-opacity:0" id="stop1260" offset="1"/></linearGradient><linearGradient id="linearGradient1228"><stop id="stop1224" offset="0" style="stop-color:#f0f;stop-opacity:1"/><stop id="stop1226" offset="1" style="stop-color:#f0f;stop-opacity:0"/></linearGradient><linearGradient id="linearGradient1373"><stop id="stop1369" offset="0" style="stop-color:#343434;stop-opacity:1"/><stop id="stop1371" offset="1" style="stop-color:#4d4d4d;stop-opacity:1"/></linearGradient><linearGradient id="linearGradient4663-8-4"><stop style="stop-color:#5596ea;stop-opacity:1" id="stop4665-6-3" offset="0"/><stop style="stop-color:#5596ea;stop-opacity:0" id="stop4667-8-0" offset="1"/></linearGradient><linearGradient id="linearGradient1403" x1="1142.588" x2="1280.895" y1="62.713" y2="200.874" gradientTransform="rotate(-5.8887665,1223.2651,99.834013)" gradientUnits="userSpaceOnUse" xlink:href="#linearGradient1373"/><linearGradient id="linearGradient1405" x1="1327.594" x2="1324.91" y1="230.862" y2="89.862" gradientTransform="matrix(0.0111212,0.99993816,0.99993816,-0.0111212,1077.8896,-1093.5223)" gradientUnits="userSpaceOnUse" xlink:href="#linearGradient4663-8-4"/><clipPath id="clipPath839-4" clipPathUnits="userSpaceOnUse"><circle style="opacity:1;vector-effect:none;fill:#000;fill-opacity:.4745098;stroke:none;stroke-width:4;stroke-linecap:square;stroke-linejoin:round;stroke-miterlimit:4;stroke-dasharray:none;stroke-dashoffset:3.20000005;stroke-opacity:1" id="circle841-5" cx="532" cy="538" r="400"/></clipPath><linearGradient id="linearGradient1351" x1="112" x2="711.864" y1="512" y2="512" gradientTransform="translate(-1211.405,-699.40501)" gradientUnits="userSpaceOnUse" xlink:href="#linearGradient1292"/><linearGradient id="linearGradient1353" x1="112" x2="711.864" y1="512" y2="512" gradientTransform="translate(-324.59499,187.40501)" gradientUnits="userSpaceOnUse" xlink:href="#linearGradient1262"/><linearGradient id="linearGradient1355" x1="112" x2="711.864" y1="512" y2="512" gradientTransform="translate(0,-1024)" gradientUnits="userSpaceOnUse" xlink:href="#linearGradient1228"/></defs><metadata id="metadata2990"/><g style="display:inline" id="layer3"><g id="g1" style="display:inline"><path style="display:inline;opacity:1;fill:#000;fill-opacity:.47451;stroke:none;stroke-width:156.932;stroke-linecap:butt;stroke-linejoin:miter;stroke-miterlimit:4;stroke-dasharray:none;stroke-dashoffset:0;stroke-opacity:1" id="path1451" d="m 224.74609,234.25586 a 400,400 0 0 0 -59.66797,79.26953 c 58.48788,57.23259 121.46901,117.97169 147.1504,145.64649 43.44948,46.82193 134.02285,115.22298 200.07226,107.3496 26.08233,18.34373 85.18115,59.44269 104.9375,69.1875 -0.3872,9.44375 1.50322,19.01979 4.90039,28.52735 18.5219,51.84164 87.76386,85.51928 47.45899,140.77148 C 748.93794,756.92985 770.03941,676.69584 736.42188,619.4668 715.43026,583.73179 684.88983,572.00044 659.4668,580.54297 644.24165,563.32376 583.67874,513.03234 561.38086,494.67578 547.16253,430.73673 460.9356,364.78349 406.00781,336.17773 372.438,318.69494 295.64917,275.49882 224.74609,234.25586 Z" clip-path="none"/><path id="path1397" d="m 1317.223,208.61842 c -71.4065,63.70087 -129.8099,2.65141 -138.859,-18.49677 5.3512,36.70726 30.086,69.55591 67.4525,82.19764 28.2209,9.54743 73.2537,9.32583 93.4427,-27.04736 z" transform="matrix(3.50294,0,0,3.50294,-3949.2328,-128.64558)" style="display:inline;opacity:1;fill:url(#linearGradient1405);fill-opacity:1;stroke:none;stroke-width:44.8;stroke-linecap:butt;stroke-linejoin:miter;stroke-miterlimit:4;stroke-dasharray:none;stroke-dashoffset:0;stroke-opacity:1"/></g></g></svg>