<svg xmlns="http://www.w3.org/2000/svg" xmlns:svg="http://www.w3.org/2000/svg" xmlns:xlink="http://www.w3.org/1999/xlink" id="svg2985" width="1024" height="1024" enable-background="new" version="1.1"><title id="title462">Krita icon - 2021</title><defs id="defs2987"><linearGradient id="linearGradient1373"><stop id="stop1369" offset="0" style="stop-color:#343434;stop-opacity:1"/><stop id="stop1371" offset="1" style="stop-color:#4d4d4d;stop-opacity:1"/></linearGradient><linearGradient id="linearGradient4663-8-4"><stop style="stop-color:#5596ea;stop-opacity:1" id="stop4665-6-3" offset="0"/><stop style="stop-color:#5596ea;stop-opacity:0" id="stop4667-8-0" offset="1"/></linearGradient><linearGradient id="linearGradient1403" x1="1142.588" x2="1280.895" y1="62.713" y2="200.874" gradientTransform="rotate(-5.8887665,1223.2651,99.834013)" gradientUnits="userSpaceOnUse" xlink:href="#linearGradient1373"/><linearGradient id="linearGradient1405" x1="1327.594" x2="1324.91" y1="230.862" y2="89.862" gradientTransform="matrix(0.0111212,0.99993816,0.99993816,-0.0111212,1077.8896,-1093.5223)" gradientUnits="userSpaceOnUse" xlink:href="#linearGradient4663-8-4"/><clipPath id="clipPath839" clipPathUnits="userSpaceOnUse"><circle style="opacity:1;vector-effect:none;fill:#000;fill-opacity:.4745098;stroke:none;stroke-width:4;stroke-linecap:square;stroke-linejoin:round;stroke-miterlimit:4;stroke-dasharray:none;stroke-dashoffset:3.20000005;stroke-opacity:1" id="circle841" cx="532" cy="538" r="400"/></clipPath><linearGradient id="linearGradient1351" x1="112" x2="711.864" y1="512" y2="512" gradientTransform="translate(-1211.405,-699.40501)" gradientUnits="userSpaceOnUse" xlink:href="#linearGradient1292"/><linearGradient id="linearGradient1292"><stop style="stop-color:#ff0;stop-opacity:1" id="stop1288" offset="0"/><stop style="stop-color:#ff0;stop-opacity:0" id="stop1290" offset="1"/></linearGradient><linearGradient id="linearGradient1353" x1="112" x2="711.864" y1="512" y2="512" gradientTransform="translate(-324.59499,187.40501)" gradientUnits="userSpaceOnUse" xlink:href="#linearGradient1262"/><linearGradient id="linearGradient1262"><stop style="stop-color:#0ff;stop-opacity:1" id="stop1258" offset="0"/><stop style="stop-color:#0ff;stop-opacity:0" id="stop1260" offset="1"/></linearGradient><linearGradient id="linearGradient1355" x1="112" x2="711.864" y1="512" y2="512" gradientTransform="translate(0,-1024)" gradientUnits="userSpaceOnUse" xlink:href="#linearGradient1228"/><linearGradient id="linearGradient1228"><stop id="stop1224" offset="0" style="stop-color:#f0f;stop-opacity:1"/><stop id="stop1226" offset="1" style="stop-color:#f0f;stop-opacity:0"/></linearGradient></defs><metadata id="metadata2990"/><path style="fill:#fff;fill-opacity:1;stroke:none;stroke-width:1px;stroke-linecap:butt;stroke-linejoin:miter;stroke-opacity:1" id="path840" d="M 660.4994,131.30543 712.68009,458.63851 912.81568,258.50291 679.38398,112.42923 Z"/><path id="path20" d="M 941.41451,259.01727 756.3921,74.007589 c -10.6462,-10.656099 -27.92791,-10.655809 -38.5893,-7e-6 l -38.41882,38.421648 48.73523,48.73664 c 11.3296,-3.82517 24.31559,-1.26048 33.34231,7.76798 9.07344,9.08476 11.62009,22.18151 7.69868,33.54916 l 46.9712,46.96979 c 11.3639,-3.91583 24.47511,-1.38601 33.5492,7.70426 12.6865,12.68225 12.68619,33.23302 0,45.91973 -12.68833,12.68975 -33.2386,12.68997 -45.93231,10e-6 -9.53918,-9.54625 -11.89808,-23.56197 -7.06679,-35.31507 l -43.8056,-43.80696 -0.01,115.27539 c 3.09292,1.53109 6.0119,3.57457 8.5891,6.14064 12.68252,12.68112 12.68252,33.22788 0,45.92903 -12.68623,12.68058 -33.24609,12.68064 -45.91969,0 -12.68443,-12.70111 -12.68441,-33.24791 0,-45.92903 3.13475,-3.1291 6.76179,-5.49762 10.63199,-7.08496 l 0,-116.34528 c -3.8702,-1.58222 -7.49178,-3.93396 -10.63199,-7.0854 -9.60761,-9.60053 -11.9219,-23.70147 -6.9943,-35.49963 L 660.4994,131.30543 533.63618,258.16157 c -10.65912,10.66478 -10.65931,27.94601 0,38.60368 L 718.657,481.77475 c 10.65183,10.65608 27.92801,10.65579 38.59492,0 L 941.40748,297.62202 c 10.6557,-10.66136 10.65569,-27.94787 0,-38.60551" style="opacity:1;fill:#3b3b3b;fill-opacity:1;fill-rule:nonzero;stroke:none;stroke-width:.46495301"/></svg>