<svg xmlns="http://www.w3.org/2000/svg" xmlns:svg="http://www.w3.org/2000/svg" xmlns:xlink="http://www.w3.org/1999/xlink" id="svg2985" width="1024" height="1024" enable-background="new" version="1.1"><title id="title462">Krita icon - 2021</title><defs id="defs2987"><linearGradient id="linearGradient1292"><stop style="stop-color:#ff0;stop-opacity:1" id="stop1288" offset="0"/><stop style="stop-color:#ff0;stop-opacity:0" id="stop1290" offset="1"/></linearGradient><linearGradient id="linearGradient1262"><stop style="stop-color:#0ff;stop-opacity:1" id="stop1258" offset="0"/><stop style="stop-color:#0ff;stop-opacity:0" id="stop1260" offset="1"/></linearGradient><linearGradient id="linearGradient1228"><stop id="stop1224" offset="0" style="stop-color:#f0f;stop-opacity:1"/><stop id="stop1226" offset="1" style="stop-color:#f0f;stop-opacity:0"/></linearGradient><linearGradient id="linearGradient1373"><stop id="stop1369" offset="0" style="stop-color:#343434;stop-opacity:1"/><stop id="stop1371" offset="1" style="stop-color:#4d4d4d;stop-opacity:1"/></linearGradient><linearGradient id="linearGradient4663-8-4"><stop style="stop-color:#5596ea;stop-opacity:1" id="stop4665-6-3" offset="0"/><stop style="stop-color:#5596ea;stop-opacity:0" id="stop4667-8-0" offset="1"/></linearGradient><linearGradient id="linearGradient1403" x1="1142.588" x2="1280.895" y1="62.713" y2="200.874" gradientTransform="rotate(-5.8887665,1223.2651,99.834013)" gradientUnits="userSpaceOnUse" xlink:href="#linearGradient1373"/><linearGradient id="linearGradient1405" x1="1327.594" x2="1324.91" y1="230.862" y2="89.862" gradientTransform="matrix(0.0111212,0.99993816,0.99993816,-0.0111212,1077.8896,-1093.5223)" gradientUnits="userSpaceOnUse" xlink:href="#linearGradient4663-8-4"/><clipPath id="clipPath839-4" clipPathUnits="userSpaceOnUse"><circle style="opacity:1;vector-effect:none;fill:#000;fill-opacity:.4745098;stroke:none;stroke-width:4;stroke-linecap:square;stroke-linejoin:round;stroke-miterlimit:4;stroke-dasharray:none;stroke-dashoffset:3.20000005;stroke-opacity:1" id="circle841-5" cx="532" cy="538" r="400"/></clipPath><linearGradient id="linearGradient1351" x1="112" x2="711.864" y1="512" y2="512" gradientTransform="translate(-1211.405,-699.40501)" gradientUnits="userSpaceOnUse" xlink:href="#linearGradient1292"/><linearGradient id="linearGradient1353" x1="112" x2="711.864" y1="512" y2="512" gradientTransform="translate(-324.59499,187.40501)" gradientUnits="userSpaceOnUse" xlink:href="#linearGradient1262"/><linearGradient id="linearGradient1355" x1="112" x2="711.864" y1="512" y2="512" gradientTransform="translate(0,-1024)" gradientUnits="userSpaceOnUse" xlink:href="#linearGradient1228"/></defs><metadata id="metadata2990"/><g style="display:inline" id="layer3"><g id="g1401" transform="matrix(3.50294,0,0,3.50294,-3949.2328,-128.64558)" style="display:inline"><path id="path1393" d="m 1287.8724,191.77055 c -18.2961,17.07187 -53.4954,-10.00757 -68.3526,-27.01475 -15.2811,-17.49248 -72.3403,-76.489933 -76.5109,-80.316254 -4.1704,-3.826182 -7.4918,-8.551341 -3.8041,-13.252566 3.839,-4.578442 9.1479,-2.303721 13.7523,0.987377 4.6047,3.291218 74.1071,46.947333 94.3766,58.289713 19.707,11.02772 53.4675,39.8812 40.5387,61.30648 z" style="display:inline;opacity:1;fill:url(#linearGradient1403);fill-opacity:1;stroke:none;stroke-width:44.8;stroke-linecap:butt;stroke-linejoin:miter;stroke-miterlimit:4;stroke-dasharray:none;stroke-dashoffset:0;stroke-opacity:1"/><path style="opacity:1;fill:#bfbfbf;fill-opacity:1;stroke:none;stroke-width:44.8;stroke-linecap:butt;stroke-linejoin:miter;stroke-miterlimit:4;stroke-dasharray:none;stroke-dashoffset:0;stroke-opacity:1" id="path1395" d="m 1316.9277,214.61304 c -5.8329,2.67141 -5.2021,4.60226 -10.3812,3.76933 -3.5721,-0.5745 -34.5172,-24.03135 -34.5172,-24.03135 -1.5685,-3.76412 0.313,-8.93876 3.8473,-13.03432 3.278,-4.30338 7.953,-7.21221 11.9598,-6.45429 0,0 29.3379,25.43836 30.6372,28.81501 1.8838,4.89578 -0.1357,4.67702 -1.5459,10.93562 z"/></g></g></svg>