<svg xmlns="http://www.w3.org/2000/svg" id="svg2" width="22" height="22" version="1.1" viewBox="0 0 22 22"><metadata id="metadata7"/><g style="display:inline" id="g4192" transform="translate(0 -10)"><path style="display:inline;opacity:.98999999;fill:#373737;fill-opacity:1;stroke:none;stroke-width:1.375;stroke-linecap:square;stroke-linejoin:miter;stroke-miterlimit:4;stroke-dasharray:none;stroke-dashoffset:1;stroke-opacity:1" id="path4200-9" d="M0 10v10h10V10zm6 2h2v2H6v4H2v-4h4z"/><path style="display:inline;opacity:.98999999;fill:#373737;fill-opacity:1;stroke:none;stroke-width:1.375;stroke-linecap:square;stroke-linejoin:miter;stroke-miterlimit:4;stroke-dasharray:none;stroke-dashoffset:1;stroke-opacity:1" id="path4200-9-3" d="M12 10v10h10V10zm6 2h2v2h-2v4h-4v-4h4z"/><path style="display:inline;opacity:.98999999;fill:#373737;fill-opacity:1;stroke:none;stroke-width:1.375;stroke-linecap:square;stroke-linejoin:miter;stroke-miterlimit:4;stroke-dasharray:none;stroke-dashoffset:1;stroke-opacity:1" id="path4200-9-6" d="M0 22v10h10V22zm6 2h2v2H6v4H2v-4h4z"/><path style="display:inline;opacity:.98999999;fill:#373737;fill-opacity:1;stroke:none;stroke-width:1.375;stroke-linecap:square;stroke-linejoin:miter;stroke-miterlimit:4;stroke-dasharray:none;stroke-dashoffset:1;stroke-opacity:1" id="path4200-9-3-7" d="M12 22v10h10V22zm6 2h2v2h-2v4h-4v-4h4z"/></g></svg>