<svg xmlns="http://www.w3.org/2000/svg" id="svg3760" width="24" height="24" version="1.1"><metadata id="metadata3765"/><g id="layer1" transform="translate(-550.286 -606.648)"><path id="path6264" d="M561.306 615.15c.177.236.044.855-.295 1.253-.339.398-2.832 3.171-2.832 3.171l-.987-.987 2.876-2.936s.752-.751 1.238-.5z" style="fill:#373737;fill-opacity:1;stroke:none;stroke-width:.02714091px;stroke-linecap:butt;stroke-linejoin:miter;stroke-opacity:1"/><path id="path6266" d="M557.988 619.884s-.065.706-.354 1.105c-.31.427-1.046.339-1.473.427-.472.236-.501.457-.663.81-.162.354-.133.487-.368.737-.104-.147-.25-1.09-.28-1.517.014-.354.103-1.37.854-1.93.752-.56 1.15-.737 1.15-.737z" style="fill:#373737;fill-opacity:1;stroke:none;stroke-width:.02714091px;stroke-linecap:butt;stroke-linejoin:miter;stroke-opacity:1"/><rect id="rect4583-7" width="10.889" height="10.067" x="552.341" y="613.833" style="fill:none;fill-opacity:1;stroke:#373737;stroke-width:.84798068;stroke-miterlimit:4;stroke-dasharray:none;stroke-opacity:1"/><path id="path6465-9-8" d="M15.676 272.073h-2.824l.706-1.222.706-1.223.706 1.223z" transform="matrix(2.57388 0 0 2.43463 532.356 -40.975)" style="fill:#373737;fill-opacity:1;stroke:none;stroke-width:.47142518;stroke-miterlimit:4;stroke-dasharray:none;stroke-opacity:1"/></g></svg>