<svg xmlns="http://www.w3.org/2000/svg" id="svg8" width="16" height="16" version="1.1" viewBox="0 0 16 16"><metadata id="metadata12"/><defs id="defs3051"><style id="current-color-scheme" type="text/css"/></defs><path style="color:#373737;fill:currentColor;fill-opacity:1;stroke:none" id="path4" d="M0 0c0 8 3 13 5 13v-1C4 12 1 8 1 0zm15 0c0 6-4 12-8 12v1c4 0 9-6 9-13zM0 12v3h3v-1h1v-1H3v-1zm13 0v1h-1v1h1v1h3v-3zM1 13h1v1H1zm7 0v1h1v-1zm2 0v1h1v-1zm4 0h1v1h-1z"/><path style="color:#3daee9;fill:currentColor;fill-opacity:1;stroke:none" id="path6" d="M3 11v5h5v-5zm2 2h1v1H5z"/></svg>