<svg xmlns="http://www.w3.org/2000/svg" id="svg3049" width="16" height="16" version="1.1"><metadata id="metadata3054"/><g id="layer1" transform="translate(-421.714 -531.79)"><path style="fill:#373737;fill-opacity:1;stroke:none;stroke-width:1px;stroke-linecap:butt;stroke-linejoin:miter;stroke-opacity:1" id="path840" d="M428.714 535.79h2v5h-2z"/><circle style="opacity:1;vector-effect:none;fill:#373737;fill-opacity:1;stroke:none;stroke-width:2;stroke-linecap:butt;stroke-linejoin:bevel;stroke-miterlimit:4;stroke-dasharray:none;stroke-dashoffset:3.20000005;stroke-opacity:1" id="path842" cx="429.714" cy="542.791" r="1"/><path id="path844" d="M8.25.016a8 8 0 0 0-5.906 2.328 8 8 0 0 0-1.225 9.709l.72-.764a7 7 0 0 1 1.212-8.238 7 7 0 0 1 8.27-1.2l.732-.732A8 8 0 0 0 8.25.016zm6.63 3.931-.72.764a7 7 0 0 1-1.21 8.238 7 7 0 0 1-8.27 1.2l-.733.732a8 8 0 0 0 9.71-1.225 8 8 0 0 0 1.224-9.709z" transform="translate(421.714 531.79)" style="opacity:1;vector-effect:none;fill:#373737;fill-opacity:1;stroke:none;stroke-width:2;stroke-linecap:butt;stroke-linejoin:bevel;stroke-miterlimit:4;stroke-dasharray:none;stroke-dashoffset:3.20000005;stroke-opacity:1"/><path style="fill:#373737;fill-opacity:1;stroke:none;stroke-width:1px;stroke-linecap:butt;stroke-linejoin:miter;stroke-opacity:1" id="path854" d="m436.595 535.738-2.88 3.053h3z"/><path style="fill:#373737;fill-opacity:1;stroke:none;stroke-width:1px;stroke-linecap:butt;stroke-linejoin:miter;stroke-opacity:1" id="path856" d="m422.834 543.843 2.88-3.052h-3z"/></g></svg>