<svg xmlns="http://www.w3.org/2000/svg" id="svg2" width="22" height="22" version="1.1" viewBox="0 0 22 22"><metadata id="metadata7"/><g style="display:inline" id="g4187" transform="translate(0 -10)"><path id="rect4205-6-6" d="M7 20h12v2H7z" style="display:inline;opacity:1;fill:#373737;fill-opacity:1;stroke:none;stroke-width:2.03100944;stroke-linecap:square;stroke-linejoin:miter;stroke-miterlimit:4;stroke-dasharray:none;stroke-dashoffset:0;stroke-opacity:1"/><path id="rect4207-3-7" d="M7 24h12v2H7z" style="display:inline;opacity:1;fill:#373737;fill-opacity:1;stroke:none;stroke-width:2.03100944;stroke-linecap:square;stroke-linejoin:miter;stroke-miterlimit:4;stroke-dasharray:none;stroke-dashoffset:0;stroke-opacity:1"/><path id="rect4207-3-3-5" d="M7 28h12v2H7z" style="display:inline;opacity:1;fill:#373737;fill-opacity:1;stroke:none;stroke-width:2.03100944;stroke-linecap:square;stroke-linejoin:miter;stroke-miterlimit:4;stroke-dasharray:none;stroke-dashoffset:0;stroke-opacity:1"/><path id="path853" d="M1 18s3-4 6-4c2 0 3 4 6 4s6-2 6-2c3.188-1.75 1.469-5.188 0-4 0 0-4 3-6 3s-3-3-6-3-6 6-6 6z" style="fill:#373737;fill-opacity:1;stroke:none;stroke-width:1px;stroke-linecap:butt;stroke-linejoin:miter;stroke-opacity:1"/><path id="rect4205-6-6-5" d="M3 20h2v2H3z" style="display:inline;opacity:1;fill:#373737;fill-opacity:1;stroke:none;stroke-width:.8291561;stroke-linecap:square;stroke-linejoin:miter;stroke-miterlimit:4;stroke-dasharray:none;stroke-dashoffset:0;stroke-opacity:1"/><path id="rect4207-3-7-3" d="M3 24h2v2H3z" style="display:inline;opacity:1;fill:#373737;fill-opacity:1;stroke:none;stroke-width:.8291561;stroke-linecap:square;stroke-linejoin:miter;stroke-miterlimit:4;stroke-dasharray:none;stroke-dashoffset:0;stroke-opacity:1"/><path id="rect4207-3-3-5-5" d="M3 28h2v2H3z" style="display:inline;opacity:1;fill:#373737;fill-opacity:1;stroke:none;stroke-width:.8291561;stroke-linecap:square;stroke-linejoin:miter;stroke-miterlimit:4;stroke-dasharray:none;stroke-dashoffset:0;stroke-opacity:1"/></g></svg>