<svg xmlns="http://www.w3.org/2000/svg" xmlns:xlink="http://www.w3.org/1999/xlink" id="svg2" width="22" height="22" version="1.1" viewBox="0 0 22 22"><defs id="defs4"><linearGradient id="linearGradient920"><stop style="stop-color:#d2d2d2;stop-opacity:1" id="stop916" offset="0"/><stop style="stop-color:#d2d2d2;stop-opacity:.25882354" id="stop918" offset="1"/></linearGradient><linearGradient id="linearGradient922" x1="6" x2="13" y1="25" y2="25" gradientTransform="translate(0 1)" gradientUnits="userSpaceOnUse" xlink:href="#linearGradient920"/></defs><metadata id="metadata7"/><g style="display:inline" id="g4152" transform="translate(0 -10)"><path style="fill:#373737;fill-opacity:1;stroke:none;stroke-width:1px;stroke-linecap:butt;stroke-linejoin:miter;stroke-opacity:1" id="path898" d="M8 15c-1.88-.044-3.877.717-4.917 2.352-1.387 2.151-1.25 4.985-.262 7.267.346.854-.024-.513-.014-.848-.237-2 .037-4.295 1.619-5.708 1.328-1.182 3.475-1.547 5.015-.568.59.347.793 1.165.471 1.737-.334 1.02-.69 2.034-1.01 3.057-.258 1.605.338 3.453 1.842 4.248 1.505.8 3.323.84 4.96.49 1.801-.39 3.29-1.817 3.807-3.579.637-2.044.338-4.312-.599-6.216.41 2.072.486 4.433-.79 6.234-1.19 1.69-3.7 2.377-5.528 1.354-.64-.332-.944-1.14-.614-1.793.353-1 .7-2.056 1.03-3.083.258-1.606-.338-3.453-1.842-4.249-.958-.54-2.083-.692-3.168-.695z"/><path style="display:inline;fill:#373737;fill-opacity:1;stroke:none;stroke-width:1px;stroke-linecap:butt;stroke-linejoin:miter;stroke-opacity:1" id="path898-7" d="M4.837 24.073c-.044 1.88.717 3.876 2.352 4.917 2.151 1.386 4.986 1.25 7.268.261.853-.345-.514.025-.849.015-1.999.236-4.295-.037-5.708-1.62-1.182-1.328-1.547-3.475-.568-5.014.348-.591 1.166-.793 1.738-.472 1.02.334 2.033.69 3.056 1.01 1.605.259 3.453-.338 4.249-1.841.8-1.505.84-3.323.49-4.96-.392-1.802-1.818-3.29-3.58-3.807-2.043-.637-4.312-.339-6.215.598 2.071-.408 4.433-.485 6.233.79 1.69 1.19 2.378 3.7 1.354 5.528-.332.64-1.139.945-1.792.615-1.001-.353-2.056-.701-3.084-1.03-1.605-.259-3.453.338-4.248 1.841-.54.959-.693 2.084-.696 3.169z"/></g></svg>