<svg xmlns="http://www.w3.org/2000/svg" id="svg2" width="22" height="22" version="1.1" viewBox="0 0 22 22"><metadata id="metadata7"/><g style="display:inline" id="g4152" transform="translate(0 -10)"><path style="opacity:1;fill:#373737;fill-opacity:1;stroke:none;stroke-width:0;stroke-linecap:butt;stroke-linejoin:round;stroke-miterlimit:4;stroke-dasharray:none;stroke-opacity:1" id="path823" d="M11 1A10 10 0 0 0 1 11a10 10 0 0 0 10 10 10 10 0 0 0 5.736-1.824A9 9 0 0 1 13 20a9 9 0 0 1-9-9 9 9 0 0 1 9-9 9 9 0 0 1 3.766.838A10 10 0 0 0 11 1z" transform="translate(0 10)"/><path style="opacity:1;fill:#373737;fill-opacity:1;stroke:none;stroke-width:1;stroke-linecap:butt;stroke-linejoin:round;stroke-miterlimit:4;stroke-dasharray:none;stroke-opacity:1" id="rect836" d="M14 12h1C5 12 5 30 15 30h-1C4 30 4 12 14 12z"/></g></svg>