<svg xmlns="http://www.w3.org/2000/svg" id="svg2" width="22" height="22" version="1.1" viewBox="0 0 22 22"><metadata id="metadata7"/><g id="g4152" transform="translate(0 -10)" style="display:inline"><path id="rect994" d="M4 12c-1.108 0-2 .892-2 2v13c0 1.108.892 2 2 2h14c1.108 0 2-.892 2-2V14c0-1.108-.892-2-2-2zm0 1h14c.554 0 1 .446 1 1v13c0 .554-.446 1-1 1H4c-.554 0-1-.446-1-1V14c0-.554.446-1 1-1z" style="opacity:1;vector-effect:none;fill:#d2d2d2;fill-opacity:1;stroke:none;stroke-width:4;stroke-linecap:square;stroke-linejoin:round;stroke-miterlimit:4;stroke-dasharray:none;stroke-dashoffset:3.20000005;stroke-opacity:.55063291"/><rect id="rect1001" width="6" height="2" x="8" y="11" ry="0" style="opacity:1;vector-effect:none;fill:#d2d2d2;fill-opacity:1;stroke:none;stroke-width:4;stroke-linecap:square;stroke-linejoin:round;stroke-miterlimit:4;stroke-dasharray:none;stroke-dashoffset:3.20000005;stroke-opacity:.55063291"/><rect id="rect1003" width="14" height="2" x="4" y="27" ry=".891" style="opacity:1;vector-effect:none;fill:#d2d2d2;fill-opacity:1;stroke:none;stroke-width:4;stroke-linecap:square;stroke-linejoin:round;stroke-miterlimit:4;stroke-dasharray:none;stroke-dashoffset:3.20000005;stroke-opacity:.55063291"/><path id="path1005" d="m8 28-1 3H4l1-3z" style="fill:#d2d2d2;fill-opacity:1;stroke:none;stroke-width:1px;stroke-linecap:butt;stroke-linejoin:miter;stroke-opacity:1"/><path id="path1005-3" d="m14 28 1 3h3l-1-3z" style="display:inline;fill:#d2d2d2;fill-opacity:1;stroke:none;stroke-width:1px;stroke-linecap:butt;stroke-linejoin:miter;stroke-opacity:1"/><rect id="rect1022" width="2" height="14" x="23.213" y="-5.343" ry="1" transform="rotate(45)" style="opacity:1;vector-effect:none;fill:#d2d2d2;fill-opacity:1;stroke:none;stroke-width:4;stroke-linecap:square;stroke-linejoin:round;stroke-miterlimit:4;stroke-dasharray:none;stroke-dashoffset:3.20000005;stroke-opacity:.55063291"/><path id="path1027" d="M8.954 23.3c-.568 1.695-2.406.795-2.593-.368-.424-2.648 5.4-1.754 3.68-6.859-1.064-3.159-6.794-1.565-6.01 1.611.162.656 1.83-.593 2.156.545.426 1.49-.472 2.09-.74 3.701-.349 2.09 1.35 3.963 3.723 3.462 2.373-.5 1.287-2.855-.216-2.091z" style="fill:#d2d2d2;fill-opacity:.50196078;stroke:none;stroke-width:.84489px;stroke-linecap:butt;stroke-linejoin:miter;stroke-opacity:1"/><path id="path1040" d="M8.855 25.773c-.742-.169-2.115-.695-2.208-.847 3.172-.688 1.927-4.647 5.041-4.645 1.077.014 1.69.346 2.09 1.133.505.995.377 1.853-.422 2.83-1.044 1.273-2.882 1.898-4.501 1.53z" style="fill:#d2d2d2;fill-opacity:1;stroke-width:.11"/></g></svg>